<?xml version="1.0" encoding="UTF-8" standalone="no"?>
<!-- Creator: fig2dev Version 3.2.9 -->
<!-- CreationDate: 2025-04-21 15:42:51 -->
<!-- Magnification: 1.05 -->
<svg	xmlns="http://www.w3.org/2000/svg"
	xmlns:xlink="http://www.w3.org/1999/xlink"
	width="98pt" height="183pt"
	viewBox="5249 2144 1554 2904">
<g fill="none">
<!-- Circle -->
<circle cx="6206" cy="3191" r="229" fill="#66bbbb"
	stroke="#000000" stroke-width="8px"/>
<!-- Text -->
<text xml:space="preserve" x="6206" y="3236" fill="#000000" font-family="Courier" font-style="normal" font-weight="bold" font-size="168" text-anchor="middle">*</text>
<!-- Circle -->
<circle cx="6566" cy="4001" r="229" fill="#66bbbb"
	stroke="#000000" stroke-width="8px"/>
<!-- Text -->
<text xml:space="preserve" x="6566" y="4046" fill="#000000" font-family="Courier" font-style="normal" font-weight="bold" font-size="168" text-anchor="middle">d</text>
<!-- Circle -->
<circle cx="5846" cy="4001" r="229" fill="#66bbbb"
	stroke="#000000" stroke-width="8px"/>
<!-- Text -->
<text xml:space="preserve" x="5846" y="4046" fill="#000000" font-family="Courier" font-style="normal" font-weight="bold" font-size="168" text-anchor="middle">-</text>
<!-- Circle -->
<circle cx="5486" cy="4811" r="229" fill="#66bbbb"
	stroke="#000000" stroke-width="8px"/>
<!-- Text -->
<text xml:space="preserve" x="5486" y="4856" fill="#000000" font-family="Courier" font-style="normal" font-weight="bold" font-size="168" text-anchor="middle">b</text>
<!-- Circle -->
<circle cx="6169" cy="4811" r="229" fill="#66bbbb"
	stroke="#000000" stroke-width="8px"/>
<!-- Text -->
<text xml:space="preserve" x="6169" y="4856" fill="#000000" font-family="Courier" font-style="normal" font-weight="bold" font-size="168" text-anchor="middle">c</text>
<!-- Circle -->
<circle cx="5846" cy="2381" r="229" fill="#66bbbb"
	stroke="#000000" stroke-width="8px"/>
<!-- Text -->
<text xml:space="preserve" x="5846" y="2426" fill="#000000" font-family="Courier" font-style="normal" font-weight="bold" font-size="168" text-anchor="middle">+</text>
<!-- Circle -->
<circle cx="5486" cy="3191" r="229" fill="#66bbbb"
	stroke="#000000" stroke-width="8px"/>
<!-- Text -->
<text xml:space="preserve" x="5486" y="3236" fill="#000000" font-family="Courier" font-style="normal" font-weight="bold" font-size="168" text-anchor="middle">a</text>
<!-- Line -->
<defs>
<clipPath id="cp0">
	<path clip-rule="evenodd" d="M 5249,2144 H 6803 V 5048 H 5249 z
		M 5968,3705 5925,3662 5835,3780 5850,3795z"/>
</clipPath>
</defs>
<polyline points=" 6210,3420 5850,3780" clip-path="url(#cp0)"
	stroke="#000000" stroke-width="15px"/>
<!-- Forward arrow to point 5850,3780 -->
<polygon points=" 5925,3662 5861,3769 5968,3705 5925,3662"
	stroke="#000000" stroke-width="8px" stroke-miterlimit="8" fill="#000000"/>
<!-- Line -->
<defs>
<clipPath id="cp1">
	<path clip-rule="evenodd" d="M 5249,2144 H 6803 V 5048 H 5249 z
		M 6495,3662 6452,3705 6570,3795 6585,3780z"/>
</clipPath>
</defs>
<polyline points=" 6210,3420 6570,3780" clip-path="url(#cp1)"
	stroke="#000000" stroke-width="15px"/>
<!-- Forward arrow to point 6570,3780 -->
<polygon points=" 6452,3705 6559,3769 6495,3662 6452,3705"
	stroke="#000000" stroke-width="8px" stroke-miterlimit="8" fill="#000000"/>
<!-- Line -->
<defs>
<clipPath id="cp2">
	<path clip-rule="evenodd" d="M 5249,2144 H 6803 V 5048 H 5249 z
		M 5608,4515 5565,4472 5475,4590 5490,4605z"/>
</clipPath>
</defs>
<polyline points=" 5850,4230 5490,4590" clip-path="url(#cp2)"
	stroke="#000000" stroke-width="15px"/>
<!-- Forward arrow to point 5490,4590 -->
<polygon points=" 5565,4472 5501,4579 5608,4515 5565,4472"
	stroke="#000000" stroke-width="8px" stroke-miterlimit="8" fill="#000000"/>
<!-- Line -->
<defs>
<clipPath id="cp3">
	<path clip-rule="evenodd" d="M 5249,2144 H 6803 V 5048 H 5249 z
		M 6135,4472 6092,4515 6210,4605 6225,4590z"/>
</clipPath>
</defs>
<polyline points=" 5850,4230 6210,4590" clip-path="url(#cp3)"
	stroke="#000000" stroke-width="15px"/>
<!-- Forward arrow to point 6210,4590 -->
<polygon points=" 6092,4515 6199,4579 6135,4472 6092,4515"
	stroke="#000000" stroke-width="8px" stroke-miterlimit="8" fill="#000000"/>
<!-- Line -->
<defs>
<clipPath id="cp4">
	<path clip-rule="evenodd" d="M 5249,2144 H 6803 V 5048 H 5249 z
		M 6135,2852 6092,2895 6210,2985 6225,2970z"/>
</clipPath>
</defs>
<polyline points=" 5850,2610 6210,2970" clip-path="url(#cp4)"
	stroke="#000000" stroke-width="15px"/>
<!-- Forward arrow to point 6210,2970 -->
<polygon points=" 6092,2895 6199,2959 6135,2852 6092,2895"
	stroke="#000000" stroke-width="8px" stroke-miterlimit="8" fill="#000000"/>
<!-- Line -->
<defs>
<clipPath id="cp5">
	<path clip-rule="evenodd" d="M 5249,2144 H 6803 V 5048 H 5249 z
		M 5608,2895 5565,2852 5475,2970 5490,2985z"/>
</clipPath>
</defs>
<polyline points=" 5850,2610 5490,2970" clip-path="url(#cp5)"
	stroke="#000000" stroke-width="15px"/>
<!-- Forward arrow to point 5490,2970 -->
<polygon points=" 5565,2852 5501,2959 5608,2895 5565,2852"
	stroke="#000000" stroke-width="8px" stroke-miterlimit="8" fill="#000000"/>
</g>
</svg>
