<svg xmlns="http://www.w3.org/2000/svg" id="svg33" viewBox="0 0 700 330">
    <defs id="defs1">
        <marker id="arrowhead" markerHeight="6" markerWidth="8" orient="auto" refX="8" refY="3">
            <path id="polygon1" fill="#e0e0e0" d="M8 3 0 6V0z"/>
        </marker>
        <style id="style1">
            .edge{stroke:#e0e0e0;stroke-width:2;fill:none}.node-circle{fill:#2d3748;stroke:#63b3ed;stroke-width:2.5}.fb-label,.node-text{font-weight:700;dominant-baseline:central}.node-text{fill:#e0e0e0;font-family:menlo,consola,&quot;DejaVu Sans Mono&quot;;font-size:14px;text-anchor:middle}.fb-label{font-family:ui-sans-serif,system-ui,sans-serif;font-size:12px;text-anchor:start}.fb-bal{fill:#68d391}.label-sub{font-family:ui-sans-serif,system-ui,sans-serif;font-size:13px;fill:#e0e0e0;font-weight:700}
        </style>
    </defs>
    <text id="text1" x="20" y="20" class="label-sub">Antes</text>
    <text id="text2" x="370" y="20" class="label-sub">Después</text>
    <path id="line2" d="m140 65-60 80" class="edge"/>
    <path id="line3" d="m140 65 60 80" class="edge"/>
    <path id="line4" d="m80 145-35 70" class="edge"/>
    <path id="line5" d="m80 145 40 70" class="edge"/>
    <path id="line6" d="m45 215-20 65" class="edge"/>
    <circle id="circle6" cx="140" cy="65" r="16" class="node-circle"/>
    <text id="text6" x="140" y="65" class="node-text">20</text>
    <text id="text7" x="116" y="61" class="fb-label" style="fill:#fc8181;text-anchor:end">fb = +2</text>
    <circle id="circle7" cx="80" cy="145" r="16" class="node-circle"/>
    <text id="text8" x="80" y="145" class="node-text">15</text>
    <text id="text9" x="106" y="141" class="fb-label fb-bal">fb = +1</text>
    <circle id="circle9" cx="200" cy="145" r="16" class="node-circle"/>
    <text id="text10" x="200" y="145" class="node-text">25</text>
    <text id="text11" x="226" y="141" class="fb-label fb-bal">fb = 0</text>
    <circle id="circle11" cx="45" cy="215" r="16" class="node-circle"/>
    <text id="text12" x="45" y="215" class="node-text">10</text>
    <text id="text13" x="65" y="211" class="fb-label fb-bal">fb =+1</text>
    <circle id="circle13" cx="120" cy="215" r="16" class="node-circle"/>
    <text id="text14" x="120" y="215" class="node-text">17</text>
    <text id="text15" x="146" y="211" class="fb-label fb-bal">fb = 0</text>
    <circle id="circle15" cx="25" cy="280" r="16" class="node-circle"/>
    <text id="text16" x="25" y="280" class="node-text">5</text>
    <text id="text17" x="51" y="276" class="fb-label fb-bal">fb = 0</text>
    <path id="line17" d="M280 100h60" style="stroke:#e0e0e0;stroke-width:2.5;marker-end:url(#arrowhead)"/>
    <path id="line18" d="m450 65-60 80" class="edge"/>
    <path id="line19" d="m450 65 60 80" class="edge"/>
    <path id="line20" d="m390 145-30 70" class="edge"/>
    <path id="line21" d="m510 145-40 70" class="edge"/>
    <path id="line22" d="m510 145 40 70" class="edge"/>
    <circle id="circle22" cx="450" cy="65" r="16" class="node-circle"/>
    <text id="text22" x="450" y="65" class="node-text">15</text>
    <text id="text23" x="476" y="61" class="fb-label fb-bal">fb = 0</text>
    <circle id="circle23" cx="390" cy="145" r="16" class="node-circle"/>
    <text id="text24" x="390" y="145" class="node-text">10</text>
    <text id="text25" x="416" y="141" class="fb-label fb-bal">fb =+1</text>
    <circle id="circle25" cx="510" cy="145" r="16" class="node-circle"/>
    <text id="text26" x="510" y="145" class="node-text">20</text>
    <text id="text27" x="536" y="141" class="fb-label fb-bal">fb = 0</text>
    <circle id="circle27" cx="360" cy="215" r="16" class="node-circle"/>
    <text id="text28" x="360" y="215" class="node-text">5</text>
    <text id="text29" x="386" y="211" class="fb-label fb-bal">fb = 0</text>
    <circle id="circle29" cx="470" cy="215" r="16" class="node-circle"/>
    <text id="text30" x="470" y="215" class="node-text">17</text>
    <text id="text31" x="496" y="211" class="fb-label fb-bal">fb = 0</text>
    <circle id="circle31" cx="550" cy="215" r="16" class="node-circle"/>
    <text id="text32" x="550" y="215" class="node-text">25</text>
    <text id="text33" x="576" y="211" class="fb-label fb-bal">fb = 0</text>
</svg>
