<?xml version="1.0" encoding="UTF-8" standalone="no"?>
<!-- Creator: fig2dev Version 3.2.9 -->

<!-- CreationDate: 2025-04-21 15:07:41 -->

<!-- Magnification: 1.05 -->

<svg
   width="303pt"
   height="223pt"
   viewBox="2321 1433 4801 3535"
   version="1.1"
   id="svg28"
   sodipodi:docname="Arbol_dark.svg"
   inkscape:version="1.4.4 (dcaf3e7d9e, 2026-05-05)"
   xmlns:inkscape="http://www.inkscape.org/namespaces/inkscape"
   xmlns:sodipodi="http://sodipodi.sourceforge.net/DTD/sodipodi-0.dtd"
   xmlns="http://www.w3.org/2000/svg"
   xmlns:svg="http://www.w3.org/2000/svg">
  <defs
     id="defs28">
    <defs
       id="defs17">
      <clipPath
         id="cp0">
        <path
           clip-rule="evenodd"
           d="M 2321,1433 H 7122 V 4968 H 2321 z M 5202,1946 5156,1984 5264,2079 5274,2071z"
           id="path17" />
      </clipPath>
    </defs>
    <defs
       id="defs18">
      <clipPath
         id="cp1">
        <path
           clip-rule="evenodd"
           d="M 2321,1433 H 7122 V 4968 H 2321 z M 4292,4365 4320,4312 4182,4266 4176,4278z"
           id="path18" />
      </clipPath>
    </defs>
    <defs
       id="defs19">
      <clipPath
         id="cp2">
        <path
           clip-rule="evenodd"
           d="M 2321,1433 H 7122 V 4968 H 2321 z M 5088,4451 5138,4419 5042,4311 5031,4318z"
           id="path19" />
      </clipPath>
    </defs>
    <defs
       id="defs20">
      <clipPath
         id="cp3">
        <path
           clip-rule="evenodd"
           d="M 2321,1433 H 7122 V 4968 H 2321 z M 6082,4376 6118,4425 6219,4321 6211,4311z"
           id="path20" />
      </clipPath>
    </defs>
    <defs
       id="defs21">
      <clipPath
         id="cp4">
        <path
           clip-rule="evenodd"
           d="M 2321,1433 H 7122 V 4968 H 2321 z M 5415,3601 5475,3601 5452,3458 5438,3458z"
           id="path21" />
      </clipPath>
    </defs>
    <defs
       id="defs22">
      <clipPath
         id="cp5">
        <path
           clip-rule="evenodd"
           d="M 2321,1433 H 7122 V 4968 H 2321 z M 4678,2928 4648,2876 4531,2966 4541,2984z"
           id="path22" />
      </clipPath>
    </defs>
    <defs
       id="defs23">
      <clipPath
         id="cp6">
        <path
           clip-rule="evenodd"
           d="M 2321,1433 H 7122 V 4968 H 2321 z M 5430,2834 5370,2834 5390,2981 5411,2981z"
           id="path23" />
      </clipPath>
    </defs>
    <defs
       id="defs24">
      <clipPath
         id="cp7">
        <path
           clip-rule="evenodd"
           d="M 2321,1433 H 7122 V 4968 H 2321 z M 6152,2876 6122,2928 6259,2984 6269,2966z"
           id="path24" />
      </clipPath>
    </defs>
    <defs
       id="defs25">
      <clipPath
         id="cp8">
        <path
           clip-rule="evenodd"
           d="M 2321,1433 H 7122 V 4968 H 2321 z M 4843,3745 4796,3782 4903,3885 4920,3872z"
           id="path25" />
      </clipPath>
    </defs>
    <defs
       id="defs26">
      <clipPath
         id="cp9">
        <path
           clip-rule="evenodd"
           d="M 2321,1433 H 7122 V 4968 H 2321 z M 4171,3801 4131,3756 4035,3869 4049,3885z"
           id="path26" />
      </clipPath>
    </defs>
    <defs
       id="defs27">
      <clipPath
         id="cp10">
        <path
           clip-rule="evenodd"
           d="M 2321,1433 H 7122 V 4968 H 2321 z M 6285,3734 6225,3734 6245,3881 6266,3881z"
           id="path27" />
      </clipPath>
    </defs>
  </defs>
  <sodipodi:namedview
     id="namedview28"
     pagecolor="#ffffff"
     bordercolor="#000000"
     borderopacity="0.25"
     inkscape:showpageshadow="2"
     inkscape:pageopacity="0.0"
     inkscape:pagecheckerboard="0"
     inkscape:deskcolor="#d1d1d1"
     inkscape:document-units="pt"
     inkscape:zoom="4.1334081"
     inkscape:cx="190.52075"
     inkscape:cy="170.19853"
     inkscape:window-width="2544"
     inkscape:window-height="1348"
     inkscape:window-x="0"
     inkscape:window-y="0"
     inkscape:window-maximized="1"
     inkscape:current-layer="svg28" />
  <style
     id="style1">
    .node-circle { fill: #4a5568; stroke: #fc8181; stroke-width: 20; }
    .tree-edge { stroke: #e0e0e0; stroke-width: 18; fill: none; }
    .tree-arrowhead { stroke: #e0e0e0; stroke-width: 8; stroke-miterlimit: 8; fill: #e0e0e0; }
    .pointer-line { stroke: #87cfff; stroke-width: 14; fill: none; }
    .pointer-arrowhead { stroke: #87cfff; stroke-width: 8; stroke-miterlimit: 8; fill: #2d3748; }
    .dashed-line { stroke: #e0e0e0; stroke-width: 14; stroke-dasharray: 40 40; fill: none; }
    .node-text { fill: #e0e0e0; font-family: monospace; dominant-baseline: central; }
    .annotation-text { fill: #e0e0e0; font-family: monospace; }
  </style>
  <polyline
     class="dashed-line"
     points=" 3510,2250 7110,2250"
     id="polyline1" />
  <polyline
     class="dashed-line"
     points=" 3510,3195 7110,3195"
     id="polyline2" />
  <polyline
     class="dashed-line"
     points=" 3510,4095 7110,4095"
     id="polyline3" />
  <circle
     class="node-circle"
     cx="5400"
     cy="2250"
     r="229"
     id="circle3" />
  <text
     class="node-text"
     xml:space="preserve"
     x="5400"
     y="2250"
     font-size="240px"
     text-anchor="middle"
     id="text3"
     style="font-size:190.224px">A</text>
  <circle
     class="node-circle"
     cx="6255"
     cy="3195"
     r="229"
     id="circle4" />
  <text
     class="node-text"
     xml:space="preserve"
     x="6255"
     y="3195"
     font-size="240px"
     text-anchor="middle"
     id="text4"
     style="font-size:190.224px">Z</text>
  <circle
     class="node-circle"
     cx="5400"
     cy="3195"
     r="229"
     id="circle5" />
  <text
     class="node-text"
     xml:space="preserve"
     x="5400"
     y="3195"
     font-size="240px"
     text-anchor="middle"
     id="text5"
     style="font-size:190.224px">N</text>
  <circle
     class="node-circle"
     cx="4050"
     cy="4095"
     r="229"
     id="circle6" />
  <text
     class="node-text"
     xml:space="preserve"
     x="4050"
     y="4095"
     font-size="240px"
     text-anchor="middle"
     id="text6"
     style="font-size:190.224px">D</text>
  <circle
     class="node-circle"
     cx="4905"
     cy="4095"
     r="229"
     id="circle7" />
  <text
     class="node-text"
     xml:space="preserve"
     x="4905"
     y="4095"
     font-size="240px"
     text-anchor="middle"
     id="text7"
     style="font-size:190.224px">C</text>
  <circle
     class="node-circle"
     cx="6255"
     cy="4095"
     r="229"
     id="circle8" />
  <text
     class="node-text"
     xml:space="preserve"
     x="6255"
     y="4095"
     font-size="240px"
     text-anchor="middle"
     id="text8"
     style="font-size:190.224px">K</text>
  <text
     class="annotation-text"
     xml:space="preserve"
     x="3420"
     y="2393"
     font-size="200px"
     text-anchor="end"
     id="text9"
     style="font-size:126.816px">nivel = 1</text>
  <text
     class="annotation-text"
     xml:space="preserve"
     x="3420"
     y="2205"
     font-size="200px"
     text-anchor="end"
     id="text10"
     style="font-size:126.816px">prof = 0</text>
  <text
     class="annotation-text"
     xml:space="preserve"
     x="3420"
     y="3338"
     font-size="200px"
     text-anchor="end"
     id="text11"
     style="font-size:126.816px">nivel = 2</text>
  <text
     class="annotation-text"
     xml:space="preserve"
     x="3420"
     y="3150"
     font-size="200px"
     text-anchor="end"
     id="text12"
     style="font-size:126.816px">prof = 1</text>
  <text
     class="annotation-text"
     xml:space="preserve"
     x="3420"
     y="4238"
     font-size="200px"
     text-anchor="end"
     id="text13"
     style="font-size:126.816px">nivel = 3</text>
  <text
     class="annotation-text"
     xml:space="preserve"
     x="3420"
     y="4050"
     font-size="200px"
     text-anchor="end"
     id="text14"
     style="font-size:126.816px">prof = 2</text>
  <text
     class="annotation-text"
     xml:space="preserve"
     x="5662"
     y="2203"
     font-size="200px"
     text-anchor="start"
     id="text15"
     style="font-size:126.816px">altura = 2</text>
  <text
     class="annotation-text"
     xml:space="preserve"
     x="5662"
     y="2015"
     font-size="200px"
     text-anchor="start"
     id="text16"
     style="font-size:126.816px">grado = 3</text>
  <circle
     class="node-circle"
     cx="4545"
     cy="3195"
     r="229"
     id="circle16" />
  <text
     class="node-text"
     xml:space="preserve"
     x="4545"
     y="3195"
     font-size="240px"
     text-anchor="middle"
     id="text17"
     style="font-size:190.224px">R</text>
  <polyline
     class="pointer-line"
     points=" 4860,1575 5265,2070"
     clip-path="url(#cp0)"
     id="polyline17" />
  <polygon
     class="pointer-arrowhead"
     points="5202,1946 5156,1984 5255,2057 "
     id="polygon17" />
  <polyline
     class="pointer-line"
     points=" 5130,4770 4185,4275"
     clip-path="url(#cp1)"
     id="polyline18" />
  <polygon
     class="pointer-arrowhead"
     points="4292,4365 4320,4312 4199,4283 "
     id="polygon18" />
  <polyline
     class="pointer-line"
     points=" 5355,4815 5040,4320"
     clip-path="url(#cp2)"
     id="polyline19" />
  <polygon
     class="pointer-arrowhead"
     points="5088,4451 5138,4419 5049,4334 "
     id="polygon19" />
  <polyline
     class="pointer-line"
     points=" 5535,4815 6210,4320"
     clip-path="url(#cp3)"
     id="polyline20" />
  <polygon
     class="pointer-arrowhead"
     points="6082,4376 6118,4425 6197,4330 "
     id="polygon20" />
  <polyline
     class="pointer-line"
     points=" 5445,4770 5445,3465"
     clip-path="url(#cp4)"
     id="polyline21" />
  <polygon
     class="pointer-arrowhead"
     points="5415,3601 5475,3601 5445,3481 "
     id="polygon21" />
  <polyline
     class="tree-edge"
     points=" 5400,2475 4545,2970"
     clip-path="url(#cp5)"
     id="polyline22" />
  <polygon
     class="tree-arrowhead"
     points="4678,2928 4648,2876 4559,2962 "
     id="polygon22" />
  <polyline
     class="tree-edge"
     points=" 5400,2475 5400,2970"
     clip-path="url(#cp6)"
     id="polyline23" />
  <polygon
     class="tree-arrowhead"
     points="5430,2834 5370,2834 5400,2954 "
     id="polygon23" />
  <polyline
     class="tree-edge"
     points=" 5400,2475 6255,2970"
     clip-path="url(#cp7)"
     id="polyline24" />
  <polygon
     class="tree-arrowhead"
     points="6152,2876 6122,2928 6241,2962 "
     id="polygon24" />
  <polyline
     class="tree-edge"
     points=" 4545,3420 4905,3870"
     clip-path="url(#cp8)"
     id="polyline25" />
  <polygon
     class="tree-arrowhead"
     points="4843,3745 4796,3782 4895,3857 "
     id="polygon25" />
  <polyline
     class="tree-edge"
     points=" 4545,3420 4050,3870"
     clip-path="url(#cp9)"
     id="polyline26" />
  <polygon
     class="tree-arrowhead"
     points="4171,3801 4131,3756 4062,3859 "
     id="polygon26" />
  <polyline
     class="tree-edge"
     points=" 6255,3420 6255,3870"
     clip-path="url(#cp10)"
     id="polyline27" />
  <polygon
     class="tree-arrowhead"
     points="6285,3734 6225,3734 6255,3854 "
     id="polygon27" />
  <text
     class="annotation-text"
     xml:space="preserve"
     x="4860"
     y="1575"
     font-size="200px"
     text-anchor="end"
     id="text27"
     style="font-size:126.816px">raíz</text>
  <text
     class="annotation-text"
     xml:space="preserve"
     x="5659.3286"
     y="4919.3818"
     font-size="200px"
     text-anchor="end"
     id="text28"
     style="font-size:126.816px">hojas</text>
</svg>
