<?xml version="1.0" encoding="UTF-8" standalone="no"?>
<svg
   viewBox="0 0 700 300"
   version="1.1"
   xmlns="http://www.w3.org/2000/svg">
  <defs>
    <style>
      .edge { stroke: #e0e0e0; stroke-width: 2; fill: none; }
      .node-circle { fill: #2d3748; stroke: #63b3ed; stroke-width: 2.5; }
      .node-text { fill: #e0e0e0; font-family: menlo, consola, 'DejaVu Sans Mono'; font-size: 14px; font-weight: bold; text-anchor: middle; dominant-baseline: central; }
    </style>
  </defs>
  <!-- Level 0 -> Level 1 -->
  <line class="edge" x1="365" y1="40" x2="280" y2="100" />
  <line class="edge" x1="365" y1="40" x2="450" y2="100" />
  <!-- Level 1 -> Level 2 -->
  <line class="edge" x1="280" y1="100" x2="225" y2="160" />
  <line class="edge" x1="280" y1="100" x2="335" y2="160" />
  <line class="edge" x1="450" y1="100" x2="395" y2="160" />
  <line class="edge" x1="450" y1="100" x2="505" y2="160" />
  <!-- Level 2 -> Level 3 -->
  <line class="edge" x1="225" y1="160" x2="195" y2="220" />
  <line class="edge" x1="225" y1="160" x2="255" y2="220" />
  <!-- Level 0 -->
  <circle class="node-circle" cx="365" cy="40" r="18" />
  <text class="node-text" x="365" y="40">10</text>
  <!-- Level 1 -->
  <circle class="node-circle" cx="280" cy="100" r="18" />
  <text class="node-text" x="280" y="100">20</text>
  <circle class="node-circle" cx="450" cy="100" r="18" />
  <text class="node-text" x="450" y="100">30</text>
  <!-- Level 2 -->
  <circle class="node-circle" cx="225" cy="160" r="18" />
  <text class="node-text" x="225" y="160">40</text>
  <circle class="node-circle" cx="335" cy="160" r="18" />
  <text class="node-text" x="335" y="160">50</text>
  <circle class="node-circle" cx="395" cy="160" r="18" />
  <text class="node-text" x="395" y="160">60</text>
  <circle class="node-circle" cx="505" cy="160" r="18" />
  <text class="node-text" x="505" y="160">70</text>
  <!-- Level 3 -->
  <circle class="node-circle" cx="195" cy="220" r="18" />
  <text class="node-text" x="195" y="220">80</text>
  <circle class="node-circle" cx="255" cy="220" r="18" />
  <text class="node-text" x="255" y="220">90</text>
</svg>
