<?xml version="1.0" encoding="UTF-8" standalone="no"?>
<svg
   viewBox="0 0 360 390"
   version="1.1"
   id="svg73"
   sodipodi:docname="NReinasSolucion_light.svg"
   inkscape:version="1.4.4 (dcaf3e7d9e, 2026-05-05)"
   xmlns:inkscape="http://www.inkscape.org/namespaces/inkscape"
   xmlns:sodipodi="http://sodipodi.sourceforge.net/DTD/sodipodi-0.dtd"
   xmlns="http://www.w3.org/2000/svg"
   xmlns:svg="http://www.w3.org/2000/svg">
  <sodipodi:namedview
     id="namedview73"
     pagecolor="#ffffff"
     bordercolor="#000000"
     borderopacity="0.25"
     inkscape:showpageshadow="2"
     inkscape:pageopacity="0.0"
     inkscape:pagecheckerboard="0"
     inkscape:deskcolor="#d1d1d1"
     inkscape:zoom="3.0230769"
     inkscape:cx="179.94911"
     inkscape:cy="195"
     inkscape:window-width="2544"
     inkscape:window-height="1354"
     inkscape:window-x="0"
     inkscape:window-y="0"
     inkscape:window-maximized="1"
     inkscape:current-layer="svg73" />
  <defs
     id="defs1">
    <style
       id="style1">
      .bg { fill: #f0f2f5; }
      .title { font-family: ui-sans-serif, system-ui, sans-serif; font-size: 18px; text-anchor: middle; fill: #333333; }
      .cell-light { fill: #e1f5ff; }
      .cell-dark { fill: #4682b4; }
      .queen { fill: #ffffff; stroke: #4682b4; stroke-width: 2; }
      .queen-text { font-family: serif; font-size: 24px; text-anchor: middle; dominant-baseline: central; fill: #1a1a2e; }
      .board-border { fill: none; stroke: #4682b4; stroke-width: 2; }
    </style>
  </defs>
  <rect
     class="bg"
     width="100%"
     height="100%"
     rx="8"
     id="rect1" />
  <text
     class="title"
     x="180"
     y="25"
     id="text1">Solución — 8 Reinas</text>
  <rect
     class="cell-light"
     x="20"
     y="40"
     width="40"
     height="40"
     id="rect2" />
  <rect
     class="cell-dark"
     x="60"
     y="40"
     width="40"
     height="40"
     id="rect3" />
  <rect
     class="cell-light"
     x="100"
     y="40"
     width="40"
     height="40"
     id="rect4" />
  <rect
     class="cell-dark"
     x="140"
     y="40"
     width="40"
     height="40"
     id="rect5" />
  <rect
     class="cell-light"
     x="180"
     y="40"
     width="40"
     height="40"
     id="rect6" />
  <rect
     class="cell-dark"
     x="220"
     y="40"
     width="40"
     height="40"
     id="rect7" />
  <rect
     class="cell-light"
     x="260"
     y="40"
     width="40"
     height="40"
     id="rect8" />
  <rect
     class="cell-dark"
     x="300"
     y="40"
     width="40"
     height="40"
     id="rect9" />
  <rect
     class="cell-dark"
     x="20"
     y="80"
     width="40"
     height="40"
     id="rect10" />
  <rect
     class="cell-light"
     x="60"
     y="80"
     width="40"
     height="40"
     id="rect11" />
  <rect
     class="cell-dark"
     x="100"
     y="80"
     width="40"
     height="40"
     id="rect12" />
  <rect
     class="cell-light"
     x="140"
     y="80"
     width="40"
     height="40"
     id="rect13" />
  <rect
     class="cell-dark"
     x="180"
     y="80"
     width="40"
     height="40"
     id="rect14" />
  <rect
     class="cell-light"
     x="220"
     y="80"
     width="40"
     height="40"
     id="rect15" />
  <rect
     class="cell-dark"
     x="260"
     y="80"
     width="40"
     height="40"
     id="rect16" />
  <rect
     class="cell-light"
     x="300"
     y="80"
     width="40"
     height="40"
     id="rect17" />
  <rect
     class="cell-light"
     x="20"
     y="120"
     width="40"
     height="40"
     id="rect18" />
  <rect
     class="cell-dark"
     x="60"
     y="120"
     width="40"
     height="40"
     id="rect19" />
  <rect
     class="cell-light"
     x="100"
     y="120"
     width="40"
     height="40"
     id="rect20" />
  <rect
     class="cell-dark"
     x="140"
     y="120"
     width="40"
     height="40"
     id="rect21" />
  <rect
     class="cell-light"
     x="180"
     y="120"
     width="40"
     height="40"
     id="rect22" />
  <rect
     class="cell-dark"
     x="220"
     y="120"
     width="40"
     height="40"
     id="rect23" />
  <rect
     class="cell-light"
     x="260"
     y="120"
     width="40"
     height="40"
     id="rect24" />
  <rect
     class="cell-dark"
     x="300"
     y="120"
     width="40"
     height="40"
     id="rect25" />
  <rect
     class="cell-dark"
     x="20"
     y="160"
     width="40"
     height="40"
     id="rect26" />
  <rect
     class="cell-light"
     x="60"
     y="160"
     width="40"
     height="40"
     id="rect27" />
  <rect
     class="cell-dark"
     x="100"
     y="160"
     width="40"
     height="40"
     id="rect28" />
  <rect
     class="cell-light"
     x="140"
     y="160"
     width="40"
     height="40"
     id="rect29" />
  <rect
     class="cell-dark"
     x="180"
     y="160"
     width="40"
     height="40"
     id="rect30" />
  <rect
     class="cell-light"
     x="220"
     y="160"
     width="40"
     height="40"
     id="rect31" />
  <rect
     class="cell-dark"
     x="260"
     y="160"
     width="40"
     height="40"
     id="rect32" />
  <rect
     class="cell-light"
     x="300"
     y="160"
     width="40"
     height="40"
     id="rect33" />
  <rect
     class="cell-light"
     x="20"
     y="200"
     width="40"
     height="40"
     id="rect34" />
  <rect
     class="cell-dark"
     x="60"
     y="200"
     width="40"
     height="40"
     id="rect35" />
  <rect
     class="cell-light"
     x="100"
     y="200"
     width="40"
     height="40"
     id="rect36" />
  <rect
     class="cell-dark"
     x="140"
     y="200"
     width="40"
     height="40"
     id="rect37" />
  <rect
     class="cell-light"
     x="180"
     y="200"
     width="40"
     height="40"
     id="rect38" />
  <rect
     class="cell-dark"
     x="220"
     y="200"
     width="40"
     height="40"
     id="rect39" />
  <rect
     class="cell-light"
     x="260"
     y="200"
     width="40"
     height="40"
     id="rect40" />
  <rect
     class="cell-dark"
     x="300"
     y="200"
     width="40"
     height="40"
     id="rect41" />
  <rect
     class="cell-dark"
     x="20"
     y="240"
     width="40"
     height="40"
     id="rect42" />
  <rect
     class="cell-light"
     x="60"
     y="240"
     width="40"
     height="40"
     id="rect43" />
  <rect
     class="cell-dark"
     x="100"
     y="240"
     width="40"
     height="40"
     id="rect44" />
  <rect
     class="cell-light"
     x="140"
     y="240"
     width="40"
     height="40"
     id="rect45" />
  <rect
     class="cell-dark"
     x="180"
     y="240"
     width="40"
     height="40"
     id="rect46" />
  <rect
     class="cell-light"
     x="220"
     y="240"
     width="40"
     height="40"
     id="rect47" />
  <rect
     class="cell-dark"
     x="260"
     y="240"
     width="40"
     height="40"
     id="rect48" />
  <rect
     class="cell-light"
     x="300"
     y="240"
     width="40"
     height="40"
     id="rect49" />
  <rect
     class="cell-light"
     x="20"
     y="280"
     width="40"
     height="40"
     id="rect50" />
  <rect
     class="cell-dark"
     x="60"
     y="280"
     width="40"
     height="40"
     id="rect51" />
  <rect
     class="cell-light"
     x="100"
     y="280"
     width="40"
     height="40"
     id="rect52" />
  <rect
     class="cell-dark"
     x="140"
     y="280"
     width="40"
     height="40"
     id="rect53" />
  <rect
     class="cell-light"
     x="180"
     y="280"
     width="40"
     height="40"
     id="rect54" />
  <rect
     class="cell-dark"
     x="220"
     y="280"
     width="40"
     height="40"
     id="rect55" />
  <rect
     class="cell-light"
     x="260"
     y="280"
     width="40"
     height="40"
     id="rect56" />
  <rect
     class="cell-dark"
     x="300"
     y="280"
     width="40"
     height="40"
     id="rect57" />
  <rect
     class="cell-dark"
     x="20"
     y="320"
     width="40"
     height="40"
     id="rect58" />
  <rect
     class="cell-light"
     x="60"
     y="320"
     width="40"
     height="40"
     id="rect59" />
  <rect
     class="cell-dark"
     x="100"
     y="320"
     width="40"
     height="40"
     id="rect60" />
  <rect
     class="cell-light"
     x="140"
     y="320"
     width="40"
     height="40"
     id="rect61" />
  <rect
     class="cell-dark"
     x="180"
     y="320"
     width="40"
     height="40"
     id="rect62" />
  <rect
     class="cell-light"
     x="220"
     y="320"
     width="40"
     height="40"
     id="rect63" />
  <rect
     class="cell-dark"
     x="260"
     y="320"
     width="40"
     height="40"
     id="rect64" />
  <rect
     class="cell-light"
     x="300"
     y="320"
     width="40"
     height="40"
     id="rect65" />
  <rect
     class="board-border"
     x="20"
     y="40"
     width="320"
     height="320"
     id="rect66" />
  <text
     class="queen-text"
     x="200"
     y="60"
     id="text66">♛</text>
  <text
     class="queen-text"
     x="120"
     y="100"
     id="text67">♛</text>
  <text
     class="queen-text"
     x="40"
     y="140"
     id="text68">♛</text>
  <text
     class="queen-text"
     x="280"
     y="180"
     id="text69">♛</text>
  <text
     class="queen-text"
     x="80"
     y="220"
     id="text70">♛</text>
  <text
     class="queen-text"
     x="320"
     y="260"
     id="text71">♛</text>
  <text
     class="queen-text"
     x="240"
     y="300"
     id="text72">♛</text>
  <text
     class="queen-text"
     x="160"
     y="340"
     id="text73">♛</text>
</svg>
