<?xml version="1.0" encoding="UTF-8"?>
<svg
   version="1.1"
   width="482"
   height="627.75"
   viewBox="-0.5 -0.5 481.99998 627.74998"
   xmlns="http://www.w3.org/2000/svg"
   xmlns:xlink="http://www.w3.org/1999/xlink">
   <!-- Árbol de llamadas recursivas de Fibonacci(5) -->
   <!-- Rama: Fibonacci(5) -> Fibonacci(4) -->
   <path d="m 40.5,30.5 q 0,25 33.63,25" fill="none" stroke="#666666" stroke-miterlimit="10" id="path1"/>
   <polygon points="76.13,51.5 73.63,55 78.88,55" fill="#666666" stroke="#666666" stroke-miterlimit="10" transform="translate(0.5,0.5)"/>
   <!-- Rama: Fibonacci(5) -> Fibonacci(3) -->
   <path d="m 40.5,30.5 q 0,385 33.63,385" fill="none" stroke="#666666" stroke-miterlimit="10" id="path2"/>
   <polygon points="76.13,411.5 73.63,415 78.88,415" fill="#666666" stroke="#666666" stroke-miterlimit="10" transform="translate(0.5,0.5)"/>
   <!-- Fibonacci(5) - 1 llamada - azul -->
   <rect x="0.5" y="0.5" width="160" height="30" rx="4.5" ry="4.5" fill="#1e1e1e" stroke="#63b3ed" stroke-width="2"/>
   <text x="80.5" y="20.5" font-family="Helvetica" font-size="16px" text-anchor="middle" fill="#e0e0e0">Fibonacci(5)</text>
   <!-- Rama: Fibonacci(4) -> Fibonacci(3) izquierda -->
   <path d="m 120.5,70.5 q 0,25 33.63,25" fill="none" stroke="#666666" stroke-miterlimit="10" id="path3"/>
   <polygon points="156.13,91.5 153.63,95 158.88,95" fill="#666666" stroke="#666666" stroke-miterlimit="10" transform="translate(0.5,0.5)"/>
   <!-- Rama: Fibonacci(4) -> Fibonacci(2) derecha -->
   <path d="m 120.5,70.5 q 0,225 33.63,225" fill="none" stroke="#666666" stroke-miterlimit="10" id="path4"/>
   <polygon points="156.13,291.5 153.63,295 158.88,295" fill="#666666" stroke="#666666" stroke-miterlimit="10" transform="translate(0.5,0.5)"/>
   <!-- Fibonacci(4) - 1 llamada - azul -->
   <rect x="80.5" y="40.5" width="160" height="30" rx="4.5" ry="4.5" fill="#1e1e1e" stroke="#63b3ed" stroke-width="2"/>
   <text x="160.5" y="60.5" font-family="Helvetica" font-size="16px" text-anchor="middle" fill="#e0e0e0">Fibonacci(4)</text>
   <!-- Rama: Fibonacci(3) izquierda -> Fibonacci(2) izquierda -->
   <path d="m 200.5,110.5 q 0,25 33.63,25" fill="none" stroke="#666666" stroke-miterlimit="10" id="path5"/>
   <polygon points="236.13,131.5 233.63,135 238.88,135" fill="#666666" stroke="#666666" stroke-miterlimit="10" transform="translate(0.5,0.5)"/>
   <!-- Rama: Fibonacci(3) izquierda -> Fibonacci(1) derecha -->
   <path d="m 200.5,110.5 q 0,145 33.63,145" fill="none" stroke="#666666" stroke-miterlimit="10" id="path6"/>
   <polygon points="236.13,251.5 233.63,255 238.88,255" fill="#666666" stroke="#666666" stroke-miterlimit="10" transform="translate(0.5,0.5)"/>
   <!-- Fibonacci(3) izquierda - 2 llamadas - rojo -->
   <rect x="160.5" y="80.5" width="160" height="30" rx="4.5" ry="4.5" fill="#1e1e1e" stroke="#fc8181" stroke-width="2"/>
   <text x="240.5" y="100.5" font-family="Helvetica" font-size="16px" text-anchor="middle" fill="#e0e0e0">Fibonacci(3)</text>
   <!-- Rama: Fibonacci(2) izquierda -> Fibonacci(1) -->
   <path d="m 280.5,150.5 q 0,25 33.63,25" fill="none" stroke="#666666" stroke-miterlimit="10" id="path7"/>
   <polygon points="316.13,171.5 313.63,175 318.88,175" fill="#666666" stroke="#666666" stroke-miterlimit="10" transform="translate(0.5,0.5)"/>
   <!-- Rama: Fibonacci(2) izquierda -> Fibonacci(0) -->
   <path d="m 280.5,150.5 q 0,65 33.63,65" fill="none" stroke="#666666" stroke-miterlimit="10" id="path8"/>
   <polygon points="316.13,211.5 313.63,215 318.88,215" fill="#666666" stroke="#666666" stroke-miterlimit="10" transform="translate(0.5,0.5)"/>
   <!-- Fibonacci(2) izquierda - 3 llamadas - verde -->
   <rect x="240.5" y="120.5" width="160" height="30" rx="4.5" ry="4.5" fill="#1e1e1e" stroke="#68d391" stroke-width="2"/>
   <text x="320.5" y="140.5" font-family="Helvetica" font-size="16px" text-anchor="middle" fill="#e0e0e0">Fibonacci(2)</text>
   <!-- Fibonacci(1) - 5 llamadas - morado -->
   <rect x="320.5" y="160.5" width="160" height="30" rx="4.5" ry="4.5" fill="#1e1e1e" stroke="#b794f4" stroke-width="2"/>
   <g transform="translate(-0.8521729,0.5)">
     <rect x="241.35217" y="239.83711" width="160" height="30" rx="4.5" ry="4.5" fill="#1e1e1e" stroke="#b794f4" stroke-width="2"/>
     <text x="321.35217" y="259.83713" font-family="Helvetica" font-size="16px" text-anchor="middle" fill="#e0e0e0">Fibonacci(1)</text>
   </g>
   <text x="400.5" y="180.5" font-family="Helvetica" font-size="16px" text-anchor="middle" fill="#e0e0e0">Fibonacci(1)</text>
   <!-- Fibonacci(0) - 3 llamadas - verde -->
   <rect x="320.5" y="200.5" width="160" height="30" rx="4.5" ry="4.5" fill="#1e1e1e" stroke="#68d391" stroke-width="2"/>
   <text x="400.5" y="220.5" font-family="Helvetica" font-size="16px" text-anchor="middle" fill="#e0e0e0">Fibonacci(0)</text>
   <!-- Rama derecha de Fibonacci(4) -> Fibonacci(2) derecha -->
   <!-- Rama: Fibonacci(2) derecha -> Fibonacci(1) -->
   <path d="m 200.5,310.5 q 0,25 33.63,25" fill="none" stroke="#666666" stroke-miterlimit="10" id="path10"/>
   <polygon points="236.13,331.5 233.63,335 238.88,335" fill="#666666" stroke="#666666" stroke-miterlimit="10" transform="translate(0.5,0.5)"/>
   <!-- Rama: Fibonacci(2) derecha -> Fibonacci(0) -->
   <path d="m 200.5,310.5 q 0,65 33.63,65" fill="none" stroke="#666666" stroke-miterlimit="10" id="path11"/>
   <polygon points="236.13,371.5 233.63,375 238.88,375" fill="#666666" stroke="#666666" stroke-miterlimit="10" transform="translate(0.5,0.5)"/>
   <!-- Fibonacci(2) derecha - 3 llamadas - verde -->
   <rect x="160.5" y="280.5" width="160" height="30" rx="4.5" ry="4.5" fill="#1e1e1e" stroke="#68d391" stroke-width="2"/>
   <text x="240.5" y="300.5" font-family="Helvetica" font-size="16px" text-anchor="middle" fill="#e0e0e0">Fibonacci(2)</text>
   <!-- Fibonacci(1) - 5 llamadas - morado -->
   <rect x="240.5" y="320.5" width="160" height="30" rx="4.5" ry="4.5" fill="#1e1e1e" stroke="#b794f4" stroke-width="2"/>
   <text x="320.5" y="340.5" font-family="Helvetica" font-size="16px" text-anchor="middle" fill="#e0e0e0">Fibonacci(1)</text>
   <!-- Fibonacci(0) - 3 llamadas - verde -->
   <rect x="240.5" y="360.5" width="160" height="30" rx="4.5" ry="4.5" fill="#1e1e1e" stroke="#68d391" stroke-width="2"/>
   <text x="320.5" y="380.5" font-family="Helvetica" font-size="16px" text-anchor="middle" fill="#e0e0e0">Fibonacci(0)</text>
   <!-- Rama derecha de Fibonacci(5) -> Fibonacci(3) derecha -->
   <!-- Rama: Fibonacci(3) derecha -> Fibonacci(2) izquierda -->
   <path d="m 120.5,430.5 q 0,25 33.63,25" fill="none" stroke="#666666" stroke-miterlimit="10" id="path13"/>
   <polygon points="156.13,451.5 153.63,455 158.88,455" fill="#666666" stroke="#666666" stroke-miterlimit="10" transform="translate(0.5,0.5)"/>
   <!-- Rama: Fibonacci(3) derecha -> Fibonacci(1) derecha -->
   <path d="m 120.5,430.5 q 0,145 33.63,145" fill="none" stroke="#666666" stroke-miterlimit="10" id="path14"/>
   <polygon points="156.13,571.5 153.63,575 158.88,575" fill="#666666" stroke="#666666" stroke-miterlimit="10" transform="translate(0.5,0.5)"/>
   <!-- Fibonacci(3) derecha - 2 llamadas - rojo -->
   <rect x="80.5" y="400.5" width="160" height="30" rx="4.5" ry="4.5" fill="#1e1e1e" stroke="#fc8181" stroke-width="2"/>
   <text x="160.5" y="420.5" font-family="Helvetica" font-size="16px" text-anchor="middle" fill="#e0e0e0">Fibonacci(3)</text>
   <!-- Rama: Fibonacci(2) -> Fibonacci(1) -->
   <path d="m 200.5,470.5 q 0,25 33.63,25" fill="none" stroke="#666666" stroke-miterlimit="10" id="path15"/>
   <polygon points="236.13,491.5 233.63,495 238.88,495" fill="#666666" stroke="#666666" stroke-miterlimit="10" transform="translate(0.5,0.5)"/>
   <!-- Rama: Fibonacci(2) -> Fibonacci(0) -->
   <path d="m 200.5,470.5 q 0,65 33.63,65" fill="none" stroke="#666666" stroke-miterlimit="10" id="path16"/>
   <polygon points="236.13,531.5 233.63,535 238.88,535" fill="#666666" stroke="#666666" stroke-miterlimit="10" transform="translate(0.5,0.5)"/>
   <!-- Fibonacci(2) - 3 llamadas - verde -->
   <rect x="160.5" y="440.5" width="160" height="30" rx="4.5" ry="4.5" fill="#1e1e1e" stroke="#68d391" stroke-width="2"/>
   <text x="240.5" y="460.5" font-family="Helvetica" font-size="16px" text-anchor="middle" fill="#e0e0e0">Fibonacci(2)</text>
   <!-- Fibonacci(1) - 5 llamadas - morado -->
   <rect x="240.5" y="480.5" width="160" height="30" rx="4.5" ry="4.5" fill="#1e1e1e" stroke="#b794f4" stroke-width="2"/>
   <text x="320.5" y="500.5" font-family="Helvetica" font-size="16px" text-anchor="middle" fill="#e0e0e0">Fibonacci(1)</text>
   <g id="g23" transform="translate(-26,66.695798)">
     <rect x="186.5" y="493.5" width="160" height="30" rx="4.5" ry="4.5" fill="#1e1e1e" stroke="#b794f4" stroke-width="2"/>
     <text x="266.5" y="513.5" font-family="Helvetica" font-size="16px" text-anchor="middle" fill="#e0e0e0">Fibonacci(1)</text>
   </g>
   <!-- Fibonacci(0) - 3 llamadas - verde -->
   <rect x="240.5" y="520.5" width="160" height="30" rx="4.5" ry="4.5" fill="#1e1e1e" stroke="#68d391" stroke-width="2"/>
   <text x="320.5" y="540.5" font-family="Helvetica" font-size="16px" text-anchor="middle" fill="#e0e0e0">Fibonacci(0)</text>
   <!-- Leyenda -->
   <g id="leyenda" transform="translate(20.5,600.5)">
     <text x="0" y="0" font-family="ui-sans-serif, system-ui, sans-serif" font-size="14px" fill="#e0e0e0">Llamadas:</text>
     <rect x="0" y="12" width="20" height="14" rx="2" fill="#1e1e1e" stroke="#63b3ed" stroke-width="1.5"/>
     <text x="26" y="24" font-family="ui-sans-serif, system-ui, sans-serif" font-size="12px" fill="#e0e0e0">1 vez</text>
     <rect x="90" y="12" width="20" height="14" rx="2" fill="#1e1e1e" stroke="#fc8181" stroke-width="1.5"/>
     <text x="116" y="24" font-family="ui-sans-serif, system-ui, sans-serif" font-size="12px" fill="#e0e0e0">2 veces</text>
     <rect x="190" y="12" width="20" height="14" rx="2" fill="#1e1e1e" stroke="#68d391" stroke-width="1.5"/>
     <text x="216" y="24" font-family="ui-sans-serif, system-ui, sans-serif" font-size="12px" fill="#e0e0e0">3 veces</text>
     <rect x="290" y="12" width="20" height="14" rx="2" fill="#1e1e1e" stroke="#b794f4" stroke-width="1.5"/>
     <text x="316" y="24" font-family="ui-sans-serif, system-ui, sans-serif" font-size="12px" fill="#e0e0e0">5 veces</text>
   </g>
</svg>
