<svg xmlns="http://www.w3.org/2000/svg" width="362" height="201" style="background:#1e1e1e" viewBox="-0.5 -0.5 362 201">
    <rect width="100%" height="100%" fill="#1e1e1e"/>
    <g data-cell-id="WIyWlLk6GJQsqaUBKTNV-0">
        <g data-cell-id="WIyWlLk6GJQsqaUBKTNV-1">
            <g fill="none" stroke="#e0e0e0" stroke-miterlimit="10" data-cell-id="wxeUETYmfaQWvYwaBpJG-3">
                <path d="M250 107V87h-92.97l-.02-25.88" pointer-events="stroke"/>
                <path d="m157 54.12 3.51 6.99-7 .01Z" pointer-events="all"/>
            </g>
            <path fill="none" stroke="#e0e0e0" stroke-miterlimit="10" d="M70 107V87" data-cell-id="wxeUETYmfaQWvYwaBpJG-7" pointer-events="stroke"/>
            <path fill="none" stroke="#e0e0e0" stroke-miterlimit="10" d="M70 87h90" data-cell-id="wxeUETYmfaQWvYwaBpJG-8" pointer-events="stroke"/>
            <g data-cell-id="wxeUETYmfaQWvYwaBpJG-14">
                <g fill="none" stroke="#e0e0e0" stroke-miterlimit="10">
                    <path d="M87 27V1h140v26" pointer-events="all"/>
                    <path d="M87 27v26h140V27M87 27h140" pointer-events="none"/>
                </g>
                <g fill="#e0e0e0" font-family="Helvetica" font-size="12" text-anchor="middle">
                    <text x="157" y="14" font-weight="bold" transform="translate(-.5 -.5)">Componente</text>
                    <text x="157" y="27" transform="translate(-.5 -.5)">«interface»</text>
                </g>
                <g data-cell-id="wxeUETYmfaQWvYwaBpJG-15">
                    <path fill="none" d="M87 27h140v26H87z" pointer-events="all"/>
                    <text x="97" y="47.5" fill="#e0e0e0" font-family="Helvetica" font-size="12" transform="translate(-.5 -.5)">+ Metodo()</text>
                </g>
            </g>
            <g data-cell-id="wxeUETYmfaQWvYwaBpJG-20">
                <g fill="none" stroke="#e0e0e0" stroke-miterlimit="10">
                    <path d="M180 133v-26h140v26" pointer-events="all"/>
                    <path d="M180 133v64h140v-64M180 133h140" pointer-events="none"/>
                </g>
                <text x="250" y="126.5" fill="#e0e0e0" font-family="Helvetica" font-size="12" font-weight="bold" text-anchor="middle" transform="translate(-.5 -.5)">Compuesto</text>
                <g data-cell-id="wxeUETYmfaQWvYwaBpJG-21">
                    <path fill="none" d="M180 133h140v64H180z" pointer-events="all"/>
                    <g fill="#e0e0e0" font-family="Helvetica" font-size="12">
                        <text x="190" y="153.5" transform="translate(-.5 -.5)">+ Metodo()</text>
                        <text x="190" y="167.5" transform="translate(-.5 -.5)">+Agregar()</text>
                    </g>
                </g>
            </g>
            <g data-cell-id="wxeUETYmfaQWvYwaBpJG-22">
                <g fill="none" stroke="#e0e0e0" stroke-miterlimit="10">
                    <path d="M0 133v-26h140v26" pointer-events="all"/>
                    <path d="M0 133v64h140v-64M0 133h140" pointer-events="none"/>
                </g>
                <text x="70" y="126.5" fill="#e0e0e0" font-family="Helvetica" font-size="12" font-weight="bold" text-anchor="middle" transform="translate(-.5 -.5)">Simple</text>
                <g data-cell-id="wxeUETYmfaQWvYwaBpJG-23">
                    <path fill="none" d="M0 133h140v64H0z" pointer-events="all"/>
                    <text x="10" y="153.5" fill="#e0e0e0" font-family="Helvetica" font-size="12" transform="translate(-.5 -.5)">+ Metodo()</text>
                </g>
            </g>
            <g fill="none" stroke="#e0e0e0" stroke-miterlimit="10" data-cell-id="wxeUETYmfaQWvYwaBpJG-25">
                <path d="M329.99 165H350V27H229.24" pointer-events="stroke"/>
                <path d="m320.99 165 4.5-2.65 4.5 2.65-4.5 2.65ZM237.12 22.5l-9 4.5 9 4.5" pointer-events="all"/>
            </g>
        </g>
    </g>
</svg>
