<?xml version="1.0" encoding="UTF-8" standalone="no"?>
<svg width="580" height="205" viewBox="0 0 580 205" version="1.1" xmlns="http://www.w3.org/2000/svg">
  <defs>
    <style>
      .edge { stroke: #333333; stroke-width: 2; fill: none; }
      .variable-node { fill: #e1f5ff; stroke: #4682b4; stroke-width: 2; }
      .value-node { fill: #ffe1e1; stroke: #e9967a; stroke-width: 2; }
      .text { fill: #333333; font-family: monospace; font-size: 16px; font-weight: bold; text-anchor: middle; dominant-baseline: central; }
      .label { fill: #333333; font-family: ui-sans-serif, system-ui, sans-serif; font-size: 15px; text-anchor: middle; }
    </style>
  </defs>

  <!-- ======= LEFT TREE: ABB (valid) ======= -->
  <!-- Edges -->
  <line class="edge" x1="135" y1="30" x2="80" y2="85"/>
  <line class="edge" x1="135" y1="30" x2="190" y2="85"/>
  <line class="edge" x1="80" y1="85" x2="52" y2="140"/>
  <line class="edge" x1="80" y1="85" x2="108" y2="140"/>
  <line class="edge" x1="190" y1="85" x2="162" y2="140"/>
  <line class="edge" x1="190" y1="85" x2="218" y2="140"/>

  <!-- Nodes -->
  <circle class="variable-node" cx="135" cy="30" r="18"/>
  <circle class="variable-node" cx="80" cy="85" r="18"/>
  <circle class="variable-node" cx="190" cy="85" r="18"/>
  <circle class="variable-node" cx="52" cy="140" r="18"/>
  <circle class="variable-node" cx="108" cy="140" r="18"/>
  <circle class="variable-node" cx="162" cy="140" r="18"/>
  <circle class="variable-node" cx="218" cy="140" r="18"/>

  <!-- Text -->
  <text class="text" x="135" y="30">7</text>
  <text class="text" x="80" y="85">3</text>
  <text class="text" x="190" y="85">9</text>
  <text class="text" x="52" y="140">2</text>
  <text class="text" x="108" y="140">5</text>
  <text class="text" x="162" y="140">8</text>
  <text class="text" x="218" y="140">10</text>

  <text class="label" x="135" y="185">ABB</text>

  <!-- ======= RIGHT TREE: No es ABB ======= -->
  <!-- Edges -->
  <line class="edge" x1="425" y1="30" x2="370" y2="85"/>
  <line class="edge" x1="425" y1="30" x2="480" y2="85"/>
  <line class="edge" x1="370" y1="85" x2="342" y2="140"/>
  <line class="edge" x1="370" y1="85" x2="398" y2="140"/>
  <line class="edge" x1="480" y1="85" x2="508" y2="140"/>

  <!-- Nodes -->
  <circle class="variable-node" cx="425" cy="30" r="18"/>
  <circle class="variable-node" cx="370" cy="85" r="18"/>
  <circle class="variable-node" cx="480" cy="85" r="18"/>
  <circle class="variable-node" cx="342" cy="140" r="18"/>
  <circle class="value-node" cx="398" cy="140" r="18"/>
  <circle class="variable-node" cx="508" cy="140" r="18"/>

  <!-- Text -->
  <text class="text" x="425" y="30">7</text>
  <text class="text" x="370" y="85">2</text>
  <text class="text" x="480" y="85">9</text>
  <text class="text" x="342" y="140">1</text>
  <text class="text" x="398" y="140">8</text>
  <text class="text" x="508" y="140">10</text>

  <text class="label" x="425" y="185">No es ABB</text>
</svg>
