<svg xmlns="http://www.w3.org/2000/svg" viewBox="0 0 600 195">
  <defs>
    <style>
      .bg { fill: #1a1a2e; }
      .edge { stroke: #e0e0e0; stroke-width: 2; fill: none; }
      .node-circle { fill: #2d3748; stroke: #63b3ed; stroke-width: 2.5; }
      .node-text { fill: #e0e0e0; font-family: monospace; font-size: 14px; font-weight: bold; text-anchor: middle; dominant-baseline: central; }
      .label { font-family: ui-sans-serif, system-ui, sans-serif; font-size: 13px; fill: #a0aec0; text-anchor: middle; font-style: italic; }
    </style>
  </defs>
  <rect class="bg" width="600" height="195" rx="8"/>
  <line class="edge" x1="300" y1="30" x2="150" y2="65"/>
  <line class="edge" x1="300" y1="30" x2="450" y2="65"/>
  <line class="edge" x1="150" y1="65" x2="75" y2="100"/>
  <line class="edge" x1="150" y1="65" x2="225" y2="100"/>
  <line class="edge" x1="450" y1="65" x2="375" y2="100"/>
  <line class="edge" x1="450" y1="65" x2="525" y2="100"/>
  <line class="edge" x1="75" y1="100" x2="38" y2="135"/>
  <line class="edge" x1="75" y1="100" x2="112" y2="135"/>
  <line class="edge" x1="225" y1="100" x2="188" y2="135"/>
  <line class="edge" x1="225" y1="100" x2="262" y2="135"/>
  <line class="edge" x1="375" y1="100" x2="338" y2="135"/>
  <line class="edge" x1="375" y1="100" x2="412" y2="135"/>
  <line class="edge" x1="525" y1="100" x2="488" y2="135"/>
  <line class="edge" x1="525" y1="100" x2="562" y2="135"/>
  <circle class="node-circle" cx="300" cy="30" r="16"/><text class="node-text" x="300" y="30">11</text>
  <circle class="node-circle" cx="150" cy="65" r="16"/><text class="node-text" x="150" y="65">7</text>
  <circle class="node-circle" cx="450" cy="65" r="16"/><text class="node-text" x="450" y="65">17</text>
  <circle class="node-circle" cx="75" cy="100" r="16"/><text class="node-text" x="75" y="100">2</text>
  <circle class="node-circle" cx="225" cy="100" r="16"/><text class="node-text" x="225" y="100">9</text>
  <circle class="node-circle" cx="375" cy="100" r="16"/><text class="node-text" x="375" y="100">15</text>
  <circle class="node-circle" cx="525" cy="100" r="16"/><text class="node-text" x="525" y="100">20</text>
  <circle class="node-circle" cx="38" cy="135" r="16"/><text class="node-text" x="38" y="135">1</text>
  <circle class="node-circle" cx="112" cy="135" r="16"/><text class="node-text" x="112" y="135">5</text>
  <circle class="node-circle" cx="188" cy="135" r="16"/><text class="node-text" x="188" y="135">8</text>
  <circle class="node-circle" cx="262" cy="135" r="16"/><text class="node-text" x="262" y="135">10</text>
  <circle class="node-circle" cx="338" cy="135" r="16"/><text class="node-text" x="338" y="135">13</text>
  <circle class="node-circle" cx="412" cy="135" r="16"/><text class="node-text" x="412" y="135">16</text>
  <circle class="node-circle" cx="488" cy="135" r="16"/><text class="node-text" x="488" y="135">19</text>
  <circle class="node-circle" cx="562" cy="135" r="16"/><text class="node-text" x="562" y="135">21</text>
  <text class="label" x="300" y="185">Árbol binario de búsqueda equilibrado</text>
</svg>