<svg xmlns="http://www.w3.org/2000/svg" viewBox="0 0 400 168">
    <defs>
        <style>
            .edge{stroke:#e0e0e0;stroke-width:1.5;fill:none}.node-circle{fill:#2d3748;stroke:#63b3ed;stroke-width:2}.node-text{fill:#e0e0e0;font-family:monospace;font-size:13px;font-weight:700;text-anchor:middle;dominant-baseline:central}.highlight-circle{fill:#3a3000;stroke:#ecc94b;stroke-width:2}.highlight-text{fill:#ecc94b;font-family:monospace;font-size:13px;font-weight:700;text-anchor:middle;dominant-baseline:central}.ann,.label{font-family:ui-sans-serif,system-ui,sans-serif;font-size:10px;fill:#a0aec0;text-anchor:middle;font-style:italic}.ann{font-size:9px;fill:#ecc94b}
        </style>
    </defs>
    <rect width="400" height="168" rx="6" style="fill:#1a1a2e"/>
    <text x="88" y="12" class="label">Antes</text>
    <text x="312" y="12" class="label">Después</text>
    <path d="M88 32 52 68M88 32l36 36M52 68l-24 36M52 68l24 36" class="edge"/>
    <path d="m76 104 16 32" style="stroke:#ecc94b;stroke-width:1.5;fill:none;stroke-dasharray:3,2"/>
    <circle cx="88" cy="32" r="16" class="highlight-circle"/>
    <text x="88" y="32" class="highlight-text">7</text>
    <text x="131" y="34" class="ann">a eliminar</text>
    <circle cx="52" cy="68" r="16" class="node-circle"/>
    <text x="52" y="68" class="node-text">3</text>
    <circle cx="124" cy="68" r="16" class="node-circle"/>
    <text x="124" y="68" class="node-text">9</text>
    <circle cx="28" cy="104" r="16" class="node-circle"/>
    <text x="28" y="104" class="node-text">2</text>
    <circle cx="76" cy="104" r="16" class="node-circle"/>
    <text x="76" y="104" class="node-text">5</text>
    <circle cx="92" cy="136" r="16" class="highlight-circle"/>
    <text x="92" y="136" class="highlight-text">6</text>
    <text x="139" y="137" class="ann">predecesor</text>
    <path d="M168 80h48" style="stroke:#a0aec0;stroke-width:1.5;fill:none"/>
    <path d="m214 75 10 5-10 5z" style="fill:#a0aec0"/>
    <path d="m312 32-36 36M312 32l36 36M276 68l-24 36M276 68l24 36" class="edge"/>
    <circle cx="312" cy="32" r="16" class="node-circle"/>
    <text x="312" y="32" class="node-text">6</text>
    <circle cx="276" cy="68" r="16" class="node-circle"/>
    <text x="276" y="68" class="node-text">3</text>
    <circle cx="348" cy="68" r="16" class="node-circle"/>
    <text x="348" y="68" class="node-text">9</text>
    <circle cx="252" cy="104" r="16" class="node-circle"/>
    <text x="252" y="104" class="node-text">2</text>
    <circle cx="300" cy="104" r="16" class="node-circle"/>
    <text x="300" y="104" class="node-text">5</text>
    <text x="312" y="164" class="label">Eliminación de (7) con dos hijos usando predecesor</text>
</svg>
