<svg xmlns="http://www.w3.org/2000/svg" width="1532" height="837">
    <defs>
        <clipPath id="a">
            <path fill="none" d="M0 0h1532v837H0z"/>
        </clipPath>
    </defs>
    <g clip-path="url(#a)">
        <path fill="#1e1e1e" d="M0 0h1532v837H0z"/>
        <path fill="none" stroke="#4a5568" stroke-linecap="round" stroke-linejoin="round" stroke-miterlimit="10" d="M116.5.5v752m89-752v752m89-752v752m89-752v752m89-752v752m89-752v752m88-752v752m89-752v752m89-752v752m89-752v752m89-752v752m89-752v752m88-752v752m89-752v752m89-752v752m89-752v752" paint-order="fill stroke markers"/>
        <path fill="none" stroke="#4a5568" stroke-linecap="round" stroke-linejoin="round" stroke-miterlimit="10" stroke-opacity=".235" d="M45.5.5v752m18-752v752m18-752v752m18-752v752m35-752v752m18-752v752m18-752v752m18-752v752m35-752v752m18-752v752m18-752v752m17-752v752m36-752v752m18-752v752m17-752v752m18-752v752m36-752v752m18-752v752m17-752v752m18-752v752m36-752v752m17-752v752m18-752v752m18-752v752m35-752v752m18-752v752m18-752v752m18-752v752m35-752v752m18-752v752m18-752v752m18-752v752m35-752v752m18-752v752m18-752v752m17-752v752m36-752v752m18-752v752m17-752v752m18-752v752m36-752v752m17-752v752m18-752v752m18-752v752m36-752v752m17-752v752m18-752v752m18-752v752m35-752v752m18-752v752m18-752v752m18-752v752m35-752v752m18-752v752m18-752v752m18-752v752m35-752v752m18-752v752m18-752v752m17-752v752m36-752v752m18-752v752m17-752v752m18-752v752m36-752v752m17-752v752m18-752v752m18-752v752" paint-order="fill stroke markers"/>
        <path fill="none" stroke="#4a5568" stroke-linecap="round" stroke-linejoin="round" stroke-miterlimit="10" d="M28.5 10.5h1504m-1504 0h1504m-1504 49h1504m-1504 50h1504m-1504 49h1504m-1504 50h1504m-1504 49h1504m-1504 50h1504m-1504 49h1504m-1504 50h1504m-1504 49h1504m-1504 50h1504m-1504 49h1504m-1504 50h1504m-1504 49h1504m-1504 50h1504" paint-order="fill stroke markers"/>
        <path fill="none" stroke="#4a5568" stroke-linecap="round" stroke-linejoin="round" stroke-miterlimit="10" stroke-opacity=".235" d="M28.5.5h1504M28.5.5h1504m-1504 20h1504m-1504 10h1504m-1504 10h1504m-1504 9h1504m-1504 20h1504m-1504 10h1504m-1504 10h1504m-1504 10h1504m-1504 20h1504m-1504 10h1504m-1504 9h1504m-1504 10h1504m-1504 20h1504m-1504 10h1504m-1504 10h1504m-1504 10h1504m-1504 20h1504m-1504 10h1504m-1504 9h1504m-1504 10h1504m-1504 20h1504m-1504 10h1504m-1504 10h1504m-1504 10h1504m-1504 20h1504m-1504 10h1504m-1504 9h1504m-1504 10h1504m-1504 20h1504m-1504 10h1504m-1504 10h1504m-1504 10h1504m-1504 20h1504m-1504 9h1504m-1504 10h1504m-1504 10h1504m-1504 20h1504m-1504 10h1504m-1504 10h1504m-1504 10h1504m-1504 20h1504m-1504 9h1504m-1504 10h1504m-1504 10h1504m-1504 20h1504m-1504 10h1504m-1504 10h1504m-1504 10h1504m-1504 20h1504m-1504 9h1504m-1504 10h1504m-1504 10h1504m-1504 20h1504m-1504 10h1504m-1504 10h1504m-1504 10h1504m-1504 20h1504m-1504 9h1504m-1504 10h1504m-1504 10h1504" paint-order="fill stroke markers"/>
        <path fill="none" stroke="#e0e0e0" stroke-miterlimit="10" d="M28.5 2.5v750M28.5 1.5l-4 4M28.5 1.5l4 4M28.5 752.5h1502M1531.5 752.5l-4-4M1531.5 752.5l-4 4" paint-order="fill stroke markers"/>
        <path fill="none" stroke="#09f" stroke-linecap="round" stroke-linejoin="round" stroke-miterlimit="10" stroke-opacity=".698" stroke-width="2.5" d="M0 758.76v.24zl1-.238 1-.236 1-.235 1-.233 1-.232 1-.23 1-.23 1-.227 1-.226 1-.224 1-.223 1-.222 1-.22 1-.22 1-.217 1-.216 1-.215 1-.214 1-.213 1-.21 1-.21 1-.21 1-.207 1-.207 1-.205 1-.204 1-.203 1-.201 1-.2 1-.2 1-.199 1-.197 1-.196 1-.195 1-.194 1-.193 1-.192 1-.19 1-.19 1-.19 1-.187 1-.187 1-.186 1-.185 1-.184 1-.183 1-.182 1-.182 1-.18 1-.18 1-.178 1-.177 1-.177 1-.176 1-.175 1-.174 1-.173 1-.173 1-.171 1-.171 1-.17 1-.17 1-.168 1-.167 1-.167 1-.166 1-.165 1-.165 1-.164 1-.163 1-.162 1-.161 1-.161 1-.16 1-.16 1-.158 1-.158 1-.158 1-.156 1-.156 1-.155 1-.155 1-.154 1-.153 1-.152 1-.152 1-.152 1-.15 1-.15 1-.15 1-.148 1-.148 1-.148 1-.147 1-.146 1-.146 1-.145 1-.144 1-.144 1-.144 1-.142 1-.143 1-.141 1-.141 1-.141 1-.14 1-.14 1-.138 1-.139 1-.138 1-.137 1-.137 1-.136 1-.136 1-.135 1-.134 1-.135 1-.133 1-.134 1-.132 1-.132 1-.132 1-.131 1-.131 1-.13 1-.13 1-.13 1-.129 1-.128 1-.128 1-.127 1-.127 1-.127 1-.126 1-.126 1-.125 1-.125 1-.124 1-.124 1-.124 1-.123 1-.122 1-.123 1-.122 1-.121 1-.121 1-.12 1-.12 1-.12 1-.12 1-.119 1-.119 1-.118 1-.118 1-.117 1-.117 1-.117 1-.116 1-.116 1-.115 1-.116 1-.114 1-.115 1-.114 1-.113 1-.114 1-.113 1-.112 1-.113 1-.112 1-.111 1-.111 1-.111 1-.11 1-.11 1-.11 1-.11 1-.11 1-.108 1-.109 1-.108 1-.108 1-.107 1-.107 1-.107 1-.107 1-.106 1-.106 1-.106 1-.105 1-.105 1-.105 1-.104 1-.104 1-.104 1-.103 1-.103 1-.103 1-.103 1-.102 1-.102 1-.102 1-.101 1-.101 1-.101 1-.1 1-.101 1-.1 1-.1 1-.1 1-.098 1-.1 1-.098 1-.098 1-.098 1-.098 1-.098 1-.097 1-.097 1-.097 1-.096 1-.096 1-.096 1-.096 1-.095 1-.096 1-.095 1-.094 1-.095 1-.094 1-.094 1-.093 1-.094 1-.093 1-.093 1-.093 1-.092 1-.093 1-.092 1-.091 1-.092 1-.091 1-.091 1-.091 1-.09 1-.091 1-.09 1-.09 1-.09 1-.09 1-.088 1-.09 1-.088 1-.089 1-.088 1-.088 1-.088 1-.088 1-.087 1-.088 1-.087 1-.087 1-.086 1-.087 1-.086 1-.086 1-.086 1-.085 1-.086 1-.085 1-.085 1-.085 1-.084 1-.085 1-.084 1-.084 1-.084 1-.083 1-.084 1-.083 1-.083 1-.083 1-.082 1-.083 1-.082 1-.082 1-.082 1-.082 1-.081 1-.082 1-.08 1-.082 1-.08 1-.081 1-.08 1-.08 1-.08 1-.08 1-.08 1-.08 1-.079 1-.08 1-.078 1-.079 1-.079 1-.078 1-.078 1-.078 1-.078 1-.078 1-.078 1-.077 1-.077 1-.078 1-.076 1-.077 1-.077 1-.076 1-.077 1-.076 1-.076 1-.075 1-.076 1-.075 1-.076 1-.075 1-.075 1-.075 1-.074 1-.075 1-.074 1-.075 1-.074 1-.074 1-.073 1-.074 1-.073 1-.074 1-.073 1-.073 1-.073 1-.072 1-.073 1-.072 1-.073 1-.072 1-.072 1-.071 1-.072 1-.072 1-.071 1-.071 1-.071 1-.071 1-.071 1-.07 1-.071 1-.07 1-.071 1-.07 1-.07 1-.07 1-.07 1-.07 1-.069 1-.07 1-.068 1-.07 1-.068 1-.07 1-.068 1-.068 1-.069 1-.068 1-.068 1-.068 1-.068 1-.068 1-.067 1-.068 1-.067 1-.067 1-.067 1-.067 1-.067 1-.067 1-.067 1-.066 1-.066 1-.067 1-.066 1-.066 1-.066 1-.065 1-.066 1-.065 1-.066 1-.065 1-.065 1-.065 1-.065 1-.065 1-.065 1-.064 1-.065 1-.064 1-.064 1-.064 1-.064 1-.064 1-.064 1-.063 1-.064 1-.063 1-.064 1-.063 1-.063 1-.063 1-.063 1-.062 1-.063 1-.063 1-.062 1-.062 1-.062 1-.062 1-.062 1-.062 1-.062 1-.062 1-.061 1-.062 1-.061 1-.061 1-.061 1-.061 1-.061 1-.061 1-.06 1-.061 1-.061 1-.06 1-.06 1-.06 1-.061 1-.06 1-.06 1-.06 1-.06 1-.059 1-.06 1-.059 1-.06 1-.058 1-.06 1-.058 1-.06 1-.058 1-.059 1-.058 1-.059 1-.058 1-.059 1-.058 1-.058 1-.058 1-.058 1-.058 1-.058 1-.057 1-.058 1-.057 1-.058 1-.057 1-.057 1-.057 1-.057 1-.057 1-.057 1-.057 1-.057 1-.056 1-.057 1-.056 1-.056 1-.057 1-.056 1-.056 1-.056 1-.056 1-.055 1-.056 1-.056 1-.055 1-.056 1-.055 1-.055 1-.055 1-.055 1-.056 1-.054 1-.055 1-.055 1-.055 1-.054 1-.055 1-.054 1-.054 1-.055 1-.054 1-.054 1-.054 1-.054 1-.054 1-.054 1-.053 1-.054 1-.053 1-.054 1-.053 1-.053 1-.054 1-.053 1-.053 1-.053 1-.053 1-.052 1-.053 1-.053 1-.052 1-.053 1-.052 1-.053 1-.052 1-.052 1-.052 1-.052 1-.052 1-.052 1-.052 1-.052 1-.051 1-.052 1-.051 1-.052 1-.051 1-.051 1-.052 1-.05 1-.052 1-.05 1-.052 1-.05 1-.051 1-.051 1-.05 1-.051 1-.05 1-.051 1-.05 1-.05 1-.051 1-.05 1-.05 1-.05 1-.05 1-.05 1-.05 1-.05 1-.05 1-.049 1-.05 1-.049 1-.05 1-.048 1-.05 1-.049 1-.049 1-.049 1-.049 1-.049 1-.049 1-.048 1-.05 1-.048 1-.048 1-.049 1-.048 1-.049 1-.048 1-.048 1-.048 1-.048 1-.048 1-.048 1-.048 1-.048 1-.048 1-.048 1-.047 1-.048 1-.048 1-.047 1-.047 1-.048 1-.047 1-.047 1-.047 1-.047 1-.048 1-.046 1-.047 1-.047 1-.047 1-.047 1-.046 1-.047 1-.047 1-.046 1-.046 1-.047 1-.046 1-.046 1-.047 1-.046 1-.046 1-.046 1-.046 1-.046 1-.045 1-.046 1-.046 1-.045 1-.046 1-.046 1-.045 1-.046 1-.045 1-.045 1-.045 1-.046 1-.045 1-.045 1-.045 1-.045 1-.045 1-.045 1-.044 1-.045 1-.045 1-.044 1-.045 1-.044 1-.045 1-.044 1-.045 1-.044 1-.044 1-.044 1-.044 1-.044 1-.045 1-.043 1-.044 1-.044 1-.044 1-.044 1-.043 1-.044 1-.044 1-.043 1-.044 1-.043 1-.044 1-.043 1-.043 1-.043 1-.043 1-.044 1-.043 1-.043 1-.043 1-.043 1-.042 1-.043 1-.043 1-.043 1-.042 1-.043 1-.042 1-.043 1-.042 1-.043 1-.042 1-.042 1-.043 1-.042 1-.042 1-.042 1-.042 1-.042 1-.042 1-.042 1-.042 1-.042 1-.041 1-.042 1-.042 1-.041 1-.042 1-.041 1-.042 1-.041 1-.042 1-.04 1-.042 1-.041 1-.042 1-.04 1-.042 1-.04 1-.042 1-.04 1-.042 1-.04 1-.041 1-.041 1-.04 1-.041 1-.041 1-.04 1-.041 1-.04 1-.041 1-.04 1-.04 1-.041 1-.04 1-.04 1-.04 1-.04 1-.04 1-.04 1-.04 1-.04 1-.04 1-.04 1-.04 1-.04 1-.04 1-.04 1-.039 1-.04 1-.039 1-.04 1-.039 1-.04 1-.039 1-.039 1-.04 1-.039 1-.039 1-.039 1-.039 1-.039 1-.039 1-.039 1-.039 1-.039 1-.039 1-.038 1-.04 1-.038 1-.039 1-.038 1-.039 1-.038 1-.039 1-.038 1-.039 1-.038 1-.039 1-.038 1-.038 1-.038 1-.038 1-.039 1-.038 1-.038 1-.038 1-.038 1-.038 1-.038 1-.037 1-.038 1-.038 1-.038 1-.037 1-.038 1-.038 1-.037 1-.038 1-.037 1-.038 1-.037 1-.038 1-.037 1-.037 1-.037 1-.038 1-.037 1-.037 1-.037 1-.037 1-.037 1-.037 1-.037 1-.037 1-.037 1-.037 1-.037 1-.036 1-.037 1-.037 1-.036 1-.037 1-.037 1-.036 1-.037 1-.036 1-.037 1-.036 1-.036 1-.037 1-.036 1-.036 1-.036 1-.036 1-.037 1-.036 1-.036 1-.036 1-.036 1-.036 1-.036 1-.036 1-.035 1-.036 1-.036 1-.036 1-.035 1-.036 1-.036 1-.035 1-.036 1-.035 1-.036 1-.035 1-.036 1-.035 1-.035 1-.036 1-.035 1-.035 1-.035 1-.036 1-.035 1-.035 1-.035 1-.035 1-.035 1-.035 1-.035 1-.035 1-.035 1-.034 1-.035 1-.035 1-.035 1-.034 1-.035 1-.035 1-.034 1-.035 1-.034 1-.035 1-.034 1-.035 1-.034 1-.034 1-.035 1-.034 1-.034 1-.035 1-.034 1-.034 1-.034 1-.034 1-.034 1-.034 1-.034 1-.034 1-.034 1-.034 1-.034 1-.034 1-.033 1-.034 1-.034 1-.034 1-.033 1-.034 1-.034 1-.033 1-.034 1-.033 1-.034 1-.033 1-.034 1-.033 1-.033 1-.034 1-.033 1-.033 1-.034 1-.033 1-.033 1-.033 1-.033 1-.033 1-.033 1-.033 1-.033 1-.033 1-.033 1-.033 1-.033 1-.033 1-.033 1-.032 1-.033 1-.033 1-.033 1-.032 1-.033 1-.032 1-.033 1-.033 1-.032 1-.033 1-.032 1-.032 1-.033 1-.032 1-.033 1-.032 1-.032 1-.032 1-.033 1-.032 1-.032 1-.032 1-.032 1-.032 1-.032 1-.032 1-.032 1-.032 1-.032 1-.032 1-.032 1-.032 1-.032 1-.031 1-.032 1-.032 1-.032 1-.031 1-.032 1-.031 1-.032 1-.032 1-.031 1-.032 1-.031 1-.032 1-.031 1-.031 1-.032 1-.031 1-.031 1-.032 1-.031 1-.031 1-.031 1-.032 1-.03 1-.032 1-.031 1-.031 1-.031 1-.031 1-.031 1-.031 1-.031 1-.03 1-.032 1-.03 1-.031 1-.031 1-.031 1-.03 1-.031 1-.031 1-.03 1-.031 1-.031 1-.03 1-.031 1-.03 1-.031 1-.03 1-.031 1-.03 1-.031 1-.03 1-.03 1-.031 1-.03 1-.03 1-.031 1-.03 1-.03 1-.03 1-.03 1-.03 1-.03 1-.031 1-.03 1-.03 1-.03 1-.03 1-.03 1-.03 1-.03 1-.03 1-.03 1-.03 1-.03 1-.029 1-.03 1-.03 1-.03 1-.029 1-.03 1-.029 1-.03 1-.03 1-.029 1-.03 1-.029 1-.03 1-.029 1-.03 1-.029 1-.029 1-.03 1-.029 1-.029 1-.03 1-.028 1-.03 1-.029 1-.03 1-.028 1-.03 1-.029 1-.029 1-.029 1-.029 1-.029 1-.029 1-.029 1-.029 1-.029 1-.029 1-.028 1-.03 1-.028 1-.029 1-.029 1-.028 1-.03 1-.028 1-.029 1-.028 1-.029 1-.029 1-.028 1-.029 1-.028 1-.029 1-.028 1-.029 1-.028 1-.029 1-.028 1-.029 1-.028 1-.028 1-.029 1-.028 1-.028 1-.028 1-.029 1-.028 1-.028 1-.028 1-.028 1-.029 1-.028 1-.028 1-.028 1-.028 1-.028 1-.028 1-.028 1-.028 1-.028 1-.028 1-.028 1-.027 1-.028 1-.028 1-.028 1-.028 1-.027 1-.028 1-.028 1-.028 1-.027 1-.028 1-.028 1-.027 1-.028 1-.027 1-.028 1-.027 1-.028 1-.027 1-.028 1-.027 1-.028 1-.027 1-.027 1-.028 1-.027 1-.027 1-.028 1-.027 1-.027 1-.027 1-.028 1-.027 1-.027 1-.027 1-.027 1-.027 1-.027 1-.028 1-.027 1-.027 1-.027 1-.027 1-.027 1-.026 1-.027 1-.027 1-.027 1-.027 1-.027 1-.027 1-.027 1-.026 1-.027 1-.027 1-.026 1-.027 1-.027 1-.027 1-.026 1-.027 1-.026 1-.027 1-.027 1-.026 1-.027 1-.026 1-.027 1-.026 1-.026 1-.027 1-.026 1-.027 1-.026 1-.026 1-.027 1-.026 1-.026 1-.027 1-.026 1-.026 1-.026 1-.026 1-.027 1-.026 1-.026 1-.026 1-.026 1-.026 1-.026 1-.026 1-.026 1-.026 1-.026 1-.026 1-.026 1-.026 1-.026 1-.026 1-.026 1-.026 1-.025 1-.026 1-.026 1-.026 1-.026 1-.025 1-.026 1-.026 1-.025 1-.026 1-.026 1-.025 1-.026 1-.026 1-.025 1-.026 1-.025 1-.026 1-.025 1-.026 1-.025 1-.026 1-.025 1-.025 1-.026 1-.025 1-.026 1-.025 1-.025 1-.025 1-.026 1-.025 1-.025 1-.026 1-.025 1-.025 1-.025 1-.025 1-.025 1-.025 1-.026 1-.025 1-.025 1-.025 1-.025 1-.025 1-.025 1-.025 1-.025 1-.025 1-.025 1-.025 1-.024 1-.025 1-.025 1-.025 1-.025 1-.025 1-.024 1-.025 1-.025 1-.025 1-.024 1-.025 1-.025 1-.025 1-.024 1-.025 1-.024 1-.025 1-.025 1-.024 1-.025 1-.024 1-.025 1-.024 1-.025 1-.024 1-.025 1-.024 1-.025 1-.024 1-.024 1-.025 1-.024 1-.024 1-.025 1-.024 1-.024 1-.025 1-.024 1-.024 1-.024 1-.024 1-.025 1-.024 1-.024 1-.024 1-.024 1-.024 1-.024 1-.024 1-.024 1-.025 1-.024 1-.024 1-.024 1-.024 1-.023 1-.024 1-.024 1-.024 1-.024 1-.024 1-.024 1-.024 1-.024 1-.023 1-.024 1-.024 1-.024 1-.023 1-.024 1-.024 1-.024 1-.023 1-.024 1-.024 1-.023 1-.024 1-.024 1-.023 1-.024 1-.023 1-.024 1-.023 1-.024 1-.023 1-.024 1-.023 1-.024 1-.023 1-.024 1-.023 1-.023 1-.024 1-.023 1-.024 1-.023 1-.023 1-.023 1-.024 1-.023 1-.023 1-.024 1-.023 1-.023 1-.023 1-.023 1-.023 1-.024 1-.023 1-.023 1-.023 1-.023 1-.023 1-.023 1-.023 1-.023 1-.023 1-.023 1-.023 1-.023 1-.023 1-.023 1-.023 1-.023 1-.023 1-.023 1-.023 1-.022 1-.023 1-.023 1-.023 1-.023 1-.023 1-.022 1-.023 1-.023 1-.023 1-.022 1-.023 1-.023 1-.022 1-.023 1-.023 1-.022 1-.023 1-.022 1-.023 1-.023 1-.022 1-.023 1-.022 1-.023 1-.022 1-.023 1-.022 1-.023 1-.022 1-.022 1-.023 1-.022 1-.023 1-.022 1-.022 1-.023 1-.022 1-.022 1-.023 1-.022 1-.022 1-.022 1-.023 1-.022 1-.022 1-.022 1-.022 1-.023 1-.022 1-.022 1-.022 1-.022 1-.022 1-.022 1-.022 1-.022 1-.023 1-.022 1-.022 1-.022 1-.022 1-.022 1-.022 1-.021 1-.022 1-.022 1-.022 1-.022 1-.022 1-.022 1-.022 1-.022 1-.021 1-.022 1-.022 1-.022 1-.022 1-.021 1-.022 1-.022 1-.022 1-.021 1-.022 1-.022 1-.021 1-.022 1-.022 1-.021 1-.022 1-.022 1-.021 1-.022 1-.021 1-.022 1-.021 1-.022 1-.021 1-.022 1-.021 1-.022 1-.021 1-.022 1-.021 1-.022 1-.021 1-.022 1-.02 1-.022 1-.022 1-.021 1-.021 1-.022 1-.021 1-.021 1-.022 1-.02 1-.022 1-.021 1-.022 1-.02" paint-order="fill stroke markers"/>
        <path fill="none" stroke="#63b3ed" stroke-linecap="round" stroke-linejoin="round" stroke-miterlimit="10" stroke-opacity=".698" stroke-width="2.5" d="M0 731.778v.14zl1-.139 1-.14 1-.139 1-.139 1-.14 1-.138 1-.14 1-.139 1-.14 1-.138 1-.14 1-.139 1-.14 1-.139 1-.139 1-.14 1-.138 1-.14 1-.139 1-.14 1-.138 1-.14 1-.139 1-.14 1-.139 1-.139 1-.14 1-.138 1-.14 1-.139 1-.14 1-.138 1-.14 1-.139 1-.14 1-.138 1-.14 1-.139 1-.14 1-.139 1-.139 1-.14 1-.138 1-.14 1-.139 1-.14 1-.138 1-.14 1-.139 1-.14 1-.139 1-.139 1-.14 1-.138 1-.14 1-.139 1-.14 1-.138 1-.14 1-.139 1-.14 1-.139 1-.139 1-.14 1-.138 1-.14 1-.139 1-.14 1-.138 1-.14 1-.139 1-.14 1-.139 1-.139 1-.14 1-.138 1-.14 1-.139 1-.14 1-.138 1-.14 1-.139 1-.14 1-.139 1-.139 1-.14 1-.138 1-.14 1-.139 1-.14 1-.138 1-.14 1-.139 1-.14 1-.139 1-.139 1-.14 1-.138 1-.14 1-.139 1-.14 1-.138 1-.14 1-.139 1-.14 1-.138 1-.14 1-.139 1-.14 1-.139 1-.139 1-.14 1-.138 1-.14 1-.139 1-.14 1-.138 1-.14 1-.139 1-.14 1-.139 1-.139 1-.14 1-.138 1-.14 1-.139 1-.14 1-.138 1-.14 1-.139 1-.14 1-.139 1-.139 1-.14 1-.138 1-.14 1-.139 1-.14 1-.138 1-.14 1-.139 1-.14 1-.139 1-.139 1-.14 1-.138 1-.14 1-.139 1-.14 1-.138 1-.14 1-.139 1-.14 1-.139 1-.139 1-.14 1-.138 1-.14 1-.139 1-.14 1-.138 1-.14 1-.139 1-.14 1-.139 1-.139 1-.14 1-.138 1-.14 1-.139 1-.14 1-.138 1-.14 1-.139 1-.14 1-.138 1-.14 1-.139 1-.14 1-.139 1-.139 1-.14 1-.138 1-.14 1-.139 1-.14 1-.138 1-.14 1-.139 1-.14 1-.139 1-.139 1-.14 1-.138 1-.14 1-.139 1-.14 1-.138 1-.14 1-.139 1-.14 1-.139 1-.139 1-.14 1-.138 1-.14 1-.139 1-.14 1-.138 1-.14 1-.139 1-.14 1-.139 1-.139 1-.14 1-.138 1-.14 1-.139 1-.14 1-.138 1-.14 1-.139 1-.14 1-.139 1-.139 1-.14 1-.138 1-.14 1-.139 1-.14 1-.138 1-.14 1-.139 1-.14 1-.139 1-.139 1-.14 1-.138 1-.14 1-.139 1-.14 1-.138 1-.14 1-.139 1-.14 1-.139 1-.139 1-.139 1-.14 1-.139 1-.139 1-.14 1-.138 1-.14 1-.139 1-.14 1-.138 1-.14 1-.139 1-.14 1-.139 1-.139 1-.14 1-.138 1-.14 1-.139 1-.14 1-.138 1-.14 1-.139 1-.14 1-.139 1-.139 1-.14 1-.138 1-.14 1-.139 1-.14 1-.138 1-.14 1-.139 1-.14 1-.139 1-.139 1-.14 1-.138 1-.14 1-.139 1-.14 1-.138 1-.14 1-.139 1-.14 1-.139 1-.139 1-.14 1-.138 1-.14 1-.139 1-.14 1-.138 1-.14 1-.139 1-.14 1-.139 1-.139 1-.14 1-.138 1-.14 1-.139 1-.14 1-.138 1-.14 1-.139 1-.14 1-.139 1-.139 1-.139 1-.14 1-.139 1-.139 1-.14 1-.138 1-.14 1-.139 1-.14 1-.138 1-.14 1-.139 1-.14 1-.139 1-.139 1-.14 1-.138 1-.14 1-.139 1-.14 1-.138 1-.14 1-.139 1-.14 1-.139 1-.139 1-.14 1-.138 1-.14 1-.139 1-.14 1-.138 1-.14 1-.139 1-.14 1-.139 1-.139 1-.14 1-.138 1-.14 1-.139 1-.14 1-.138 1-.14 1-.139 1-.14 1-.139 1-.139 1-.14 1-.138 1-.14 1-.139 1-.14 1-.138 1-.14 1-.139 1-.14 1-.139 1-.139 1-.14 1-.138 1-.14 1-.139 1-.14 1-.138 1-.14 1-.139 1-.14 1-.139 1-.139 1-.14 1-.138 1-.14 1-.139 1-.14 1-.138 1-.14 1-.139 1-.14 1-.138 1-.14 1-.139 1-.14 1-.139 1-.139 1-.14 1-.138 1-.14 1-.139 1-.14 1-.138 1-.14 1-.139 1-.14 1-.139 1-.139 1-.14 1-.138 1-.14 1-.139 1-.14 1-.138 1-.14 1-.139 1-.14 1-.139 1-.139 1-.14 1-.138 1-.14 1-.139 1-.14 1-.138 1-.14 1-.139 1-.14 1-.139 1-.139 1-.14 1-.138 1-.14 1-.139 1-.14 1-.138 1-.14 1-.139 1-.14 1-.139 1-.139 1-.14 1-.138 1-.14 1-.139 1-.14 1-.138 1-.14 1-.139 1-.14 1-.139 1-.139 1-.14 1-.138 1-.14 1-.139 1-.14 1-.138 1-.14 1-.139 1-.14 1-.138 1-.14 1-.139 1-.14 1-.139 1-.139 1-.14 1-.138 1-.14 1-.139 1-.14 1-.138 1-.14 1-.139 1-.14 1-.139 1-.139 1-.14 1-.138 1-.14 1-.139 1-.14 1-.138 1-.14 1-.139 1-.14 1-.139 1-.139 1-.14 1-.138 1-.14 1-.139 1-.14 1-.138 1-.14 1-.139 1-.14 1-.139 1-.139 1-.14 1-.138 1-.14 1-.139 1-.14 1-.138 1-.14 1-.139 1-.14 1-.139 1-.139 1-.14 1-.138 1-.14 1-.139 1-.14 1-.138 1-.14 1-.139 1-.14 1-.139 1-.139 1-.14 1-.138 1-.14 1-.139 1-.14 1-.138 1-.14 1-.139 1-.14 1-.138 1-.14 1-.139 1-.14 1-.139 1-.139 1-.14 1-.138 1-.14 1-.139 1-.14 1-.138 1-.14 1-.139 1-.14 1-.139 1-.139 1-.14 1-.138 1-.14 1-.139 1-.14 1-.138 1-.14 1-.139 1-.14 1-.139 1-.139 1-.14 1-.138 1-.14 1-.139 1-.14 1-.138 1-.14 1-.139 1-.14 1-.139 1-.139 1-.14 1-.138 1-.14 1-.139 1-.14 1-.138 1-.14 1-.139 1-.14 1-.139 1-.139 1-.14 1-.138 1-.14 1-.139 1-.14 1-.138 1-.14 1-.139 1-.14 1-.139 1-.139 1-.14 1-.138 1-.14 1-.139 1-.14 1-.138 1-.14 1-.139 1-.14 1-.139 1-.139 1-.139 1-.14 1-.139 1-.139 1-.14 1-.138 1-.14 1-.139 1-.14 1-.138 1-.14 1-.139 1-.14 1-.139 1-.139 1-.14 1-.138 1-.14 1-.139 1-.14 1-.138 1-.14 1-.139 1-.14 1-.139 1-.139 1-.14 1-.138 1-.14 1-.139 1-.14 1-.138 1-.14 1-.139 1-.14 1-.139 1-.139 1-.14 1-.138 1-.14 1-.139 1-.14 1-.138 1-.14 1-.139 1-.14 1-.139 1-.139 1-.14 1-.138 1-.14 1-.139 1-.14 1-.138 1-.14 1-.139 1-.14 1-.139 1-.139 1-.14 1-.138 1-.14 1-.139 1-.14 1-.138 1-.14 1-.139 1-.14 1-.139 1-.139 1-.139 1-.14 1-.139 1-.139 1-.14 1-.138 1-.14 1-.139 1-.14 1-.138 1-.14 1-.139 1-.14 1-.139 1-.139 1-.14 1-.138 1-.14 1-.139 1-.14 1-.138 1-.14 1-.139 1-.14 1-.139 1-.139 1-.14 1-.138 1-.14 1-.139 1-.14 1-.138 1-.14 1-.139 1-.14 1-.139 1-.139 1-.14 1-.138 1-.14 1-.139 1-.14 1-.138 1-.14 1-.139 1-.14 1-.139 1-.139 1-.14 1-.138 1-.14 1-.139 1-.14 1-.138 1-.14 1-.139 1-.14 1-.139 1-.139 1-.14 1-.138 1-.14 1-.139 1-.14 1-.138 1-.14 1-.139 1-.14 1-.139 1-.139 1-.14 1-.138 1-.14 1-.139 1-.14 1-.138 1-.14 1-.139 1-.14 1-.138 1-.14 1-.139 1-.14 1-.139 1-.139 1-.14 1-.138 1-.14 1-.139 1-.14 1-.138 1-.14 1-.139 1-.14 1-.139 1-.139 1-.14 1-.138 1-.14 1-.139 1-.14 1-.138 1-.14 1-.139 1-.14 1-.139 1-.139 1-.14 1-.138 1-.14 1-.139 1-.14 1-.138 1-.14 1-.139 1-.14 1-.139 1-.139 1-.14 1-.138 1-.14 1-.139 1-.14 1-.138 1-.14 1-.139 1-.14 1-.139 1-.139 1-.14 1-.138 1-.14 1-.139 1-.14 1-.138 1-.14 1-.139 1-.14 1-.139 1-.139 1-.14 1-.138 1-.14 1-.139 1-.14 1-.138 1-.14 1-.139 1-.14 1-.138 1-.14 1-.139 1-.14 1-.139 1-.139 1-.14 1-.138 1-.14 1-.139 1-.14 1-.138 1-.14 1-.139 1-.14 1-.139 1-.139 1-.14 1-.138 1-.14 1-.139 1-.14 1-.138 1-.14 1-.139 1-.14 1-.139 1-.139 1-.14 1-.138 1-.14 1-.139 1-.14 1-.138 1-.14 1-.139 1-.14 1-.139 1-.139 1-.14 1-.138 1-.14 1-.139 1-.14 1-.138 1-.14 1-.139 1-.14 1-.139 1-.139 1-.14 1-.138 1-.14 1-.139 1-.14 1-.138 1-.14 1-.139 1-.14 1-.139 1-.139 1-.14 1-.138 1-.14 1-.139 1-.14 1-.138 1-.14 1-.139 1-.14 1-.138 1-.14 1-.139 1-.14 1-.139 1-.139 1-.14 1-.138 1-.14 1-.139 1-.14 1-.138 1-.14 1-.139 1-.14 1-.139 1-.139 1-.14 1-.138 1-.14 1-.139 1-.14 1-.138 1-.14 1-.139 1-.14 1-.139 1-.139 1-.14 1-.138 1-.14 1-.139 1-.14 1-.138 1-.14 1-.139 1-.14 1-.139 1-.139 1-.14 1-.138 1-.14 1-.139 1-.14 1-.138 1-.14 1-.139 1-.14 1-.139 1-.139 1-.14 1-.138 1-.14 1-.139 1-.14 1-.138 1-.14 1-.139 1-.14 1-.139 1-.139 1-.14 1-.138 1-.14 1-.139 1-.14 1-.138 1-.14 1-.139 1-.14 1-.139 1-.139 1-.139 1-.14 1-.139 1-.139 1-.14 1-.138 1-.14 1-.139 1-.14 1-.138 1-.14 1-.139 1-.14 1-.139 1-.139 1-.14 1-.138 1-.14 1-.139 1-.14 1-.138 1-.14 1-.139 1-.14 1-.139 1-.139 1-.14 1-.138 1-.14 1-.139 1-.14 1-.138 1-.14 1-.139 1-.14 1-.139 1-.139 1-.14 1-.138 1-.14 1-.139 1-.14 1-.138 1-.14 1-.139 1-.14 1-.139 1-.139 1-.14 1-.138 1-.14 1-.139 1-.14 1-.138 1-.14 1-.139 1-.14 1-.139 1-.139 1-.14 1-.138 1-.14 1-.139 1-.14 1-.138 1-.14 1-.139 1-.14 1-.139 1-.139 1-.139 1-.14 1-.139 1-.139 1-.14 1-.138 1-.14 1-.139 1-.14 1-.138 1-.14 1-.139 1-.14 1-.139 1-.139 1-.14 1-.138 1-.14 1-.139 1-.14 1-.138 1-.14 1-.139 1-.14 1-.139 1-.139 1-.14 1-.138 1-.14 1-.139 1-.14 1-.138 1-.14 1-.139 1-.14 1-.139 1-.139 1-.14 1-.138 1-.14 1-.139 1-.14 1-.138 1-.14 1-.139 1-.14 1-.139 1-.139 1-.14 1-.138 1-.14 1-.139 1-.14 1-.138 1-.14 1-.139 1-.14 1-.139 1-.139 1-.14 1-.138 1-.14 1-.139 1-.14 1-.138 1-.14 1-.139 1-.14 1-.139 1-.139 1-.139 1-.14 1-.139 1-.139 1-.14 1-.138 1-.14 1-.139 1-.14 1-.138 1-.14 1-.139 1-.14 1-.139 1-.139 1-.14 1-.138 1-.14 1-.139 1-.14 1-.138 1-.14 1-.139 1-.14 1-.139 1-.139 1-.14 1-.138 1-.14 1-.139 1-.14 1-.138 1-.14 1-.139 1-.14 1-.139 1-.139 1-.14 1-.138 1-.14 1-.139 1-.14 1-.138 1-.14 1-.139 1-.14 1-.139 1-.139 1-.14 1-.138 1-.14 1-.139 1-.14 1-.138 1-.14 1-.139 1-.14 1-.139 1-.139 1-.14 1-.138 1-.14 1-.139 1-.14 1-.138 1-.14 1-.139 1-.14 1-.139 1-.139 1-.14 1-.138 1-.14 1-.139 1-.14 1-.138 1-.14 1-.139 1-.14 1-.138 1-.14 1-.139 1-.14 1-.139 1-.139 1-.14 1-.138 1-.14 1-.139 1-.14 1-.138 1-.14 1-.139 1-.14 1-.139 1-.139 1-.14 1-.138 1-.14 1-.139 1-.14 1-.138 1-.14 1-.139 1-.14 1-.139 1-.139 1-.14 1-.138 1-.14 1-.139 1-.14 1-.138 1-.14 1-.139 1-.14 1-.139 1-.139 1-.14 1-.138 1-.14 1-.139 1-.14 1-.138 1-.14 1-.139 1-.14 1-.139 1-.139 1-.14 1-.138 1-.14 1-.139 1-.14 1-.138 1-.14 1-.139 1-.14 1-.139 1-.139 1-.14 1-.138 1-.14 1-.139 1-.14 1-.138 1-.14 1-.139 1-.14 1-.138 1-.14 1-.139 1-.14 1-.139 1-.139 1-.14 1-.138 1-.14 1-.139 1-.14 1-.138 1-.14 1-.139 1-.14 1-.139 1-.139 1-.14 1-.138 1-.14 1-.139 1-.14 1-.138 1-.14 1-.139 1-.14 1-.139 1-.139 1-.14 1-.138 1-.14 1-.139 1-.14 1-.138 1-.14 1-.139 1-.14 1-.139 1-.139 1-.14 1-.138 1-.14 1-.139 1-.14 1-.138 1-.14 1-.139 1-.14 1-.139 1-.139 1-.14 1-.138 1-.14 1-.139 1-.14 1-.138 1-.14 1-.139 1-.14 1-.139 1-.139 1-.14 1-.138 1-.14 1-.139 1-.14 1-.138 1-.14 1-.139 1-.14 1-.139 1-.139 1-.139 1-.14 1-.139 1-.139 1-.14 1-.138 1-.14 1-.139 1-.14 1-.138 1-.14 1-.139 1-.14 1-.139 1-.139 1-.14 1-.138 1-.14 1-.139 1-.14 1-.138 1-.14 1-.139 1-.14 1-.139 1-.139 1-.14 1-.138 1-.14 1-.139 1-.14 1-.138 1-.14 1-.139 1-.14 1-.139 1-.139 1-.14 1-.138 1-.14 1-.139 1-.14 1-.138 1-.14 1-.139 1-.14 1-.139 1-.139 1-.14 1-.138 1-.14 1-.139 1-.14 1-.138 1-.14 1-.139 1-.14 1-.139 1-.139 1-.14 1-.138 1-.14 1-.139 1-.14 1-.138 1-.14 1-.139 1-.14 1-.139 1-.139 1-.139 1-.14 1-.139 1-.139 1-.14 1-.138 1-.14 1-.139 1-.14 1-.138 1-.14 1-.139 1-.14 1-.139 1-.139 1-.14 1-.138 1-.14 1-.139 1-.14 1-.138 1-.14 1-.139 1-.14 1-.139 1-.139 1-.14 1-.138 1-.14 1-.139 1-.14 1-.138 1-.14 1-.139 1-.14 1-.139 1-.139 1-.14 1-.138 1-.14 1-.139 1-.14 1-.138 1-.14 1-.139 1-.14 1-.139 1-.139 1-.14 1-.138 1-.14 1-.139 1-.14 1-.138 1-.14 1-.139 1-.14 1-.139 1-.139 1-.14 1-.138 1-.14 1-.139 1-.14 1-.138 1-.14 1-.139 1-.14 1-.139 1-.139 1-.139 1-.14 1-.139 1-.139 1-.14 1-.138 1-.14 1-.139 1-.14 1-.138 1-.14 1-.139 1-.14 1-.139 1-.139 1-.14 1-.138 1-.14 1-.139 1-.14 1-.138 1-.14 1-.139 1-.14 1-.139 1-.139 1-.14 1-.138 1-.14 1-.139 1-.14 1-.138 1-.14 1-.139 1-.14 1-.139 1-.139 1-.14 1-.138 1-.14 1-.139 1-.14 1-.138 1-.14 1-.139 1-.14 1-.139 1-.139 1-.14 1-.138 1-.14 1-.139 1-.14 1-.138 1-.14 1-.139 1-.14 1-.139 1-.139 1-.14 1-.138 1-.14 1-.139" paint-order="fill stroke markers"/>
        <path fill="none" stroke="#ff7f00" stroke-linecap="round" stroke-linejoin="round" stroke-miterlimit="10" stroke-opacity=".698" stroke-width="2.5" d="M0 735.079v.233zl1-.235 1-.237 1-.238 1-.24 1-.242 1-.243 1-.244 1-.246 1-.248 1-.25 1-.25 1-.253 1-.254 1-.255 1-.257 1-.259 1-.26 1-.262 1-.263 1-.265 1-.267 1-.268 1-.27 1-.271 1-.273 1-.274 1-.276 1-.278 1-.279 1-.28 1-.282 1-.284 1-.286 1-.286 1-.289 1-.29 1-.292 1-.293 1-.295 1-.296 1-.298 1-.3 1-.3 1-.303 1-.304 1-.306 1-.307 1-.309 1-.31 1-.312 1-.314 1-.315 1-.317 1-.318 1-.32 1-.321 1-.323 1-.325 1-.326 1-.327 1-.33 1-.33 1-.333 1-.334 1-.335 1-.337 1-.34 1-.34 1-.341 1-.343 1-.345 1-.347 1-.348 1-.35 1-.35 1-.353 1-.355 1-.356 1-.357 1-.36 1-.36 1-.362 1-.364 1-.365 1-.367 1-.368 1-.37 1-.372 1-.373 1-.375 1-.376 1-.378 1-.38 1-.38 1-.383 1-.384 1-.386 1-.387 1-.389 1-.39 1-.392 1-.394 1-.395 1-.396 1-.398 1-.4 1-.402 1-.403 1-.404 1-.406 1-.408 1-.409 1-.41 1-.413 1-.414 1-.415 1-.417 1-.42 1-.42 1-.421 1-.423 1-.425 1-.427 1-.428 1-.43 1-.43 1-.433 1-.434 1-.436 1-.438 1-.439 1-.44 1-.442 1-.444 1-.445 1-.447 1-.449 1-.45 1-.451 1-.453 1-.455 1-.456 1-.458 1-.46 1-.46 1-.463 1-.464 1-.465 1-.468 1-.468 1-.47 1-.473 1-.473 1-.475 1-.477 1-.478 1-.48 1-.481 1-.483 1-.484 1-.486 1-.488 1-.49 1-.49 1-.492 1-.494 1-.495 1-.497 1-.5 1-.5 1-.5 1-.504 1-.505 1-.506 1-.508 1-.51 1-.511 1-.513 1-.514 1-.516 1-.517 1-.52 1-.52 1-.522 1-.523 1-.526 1-.526 1-.529 1-.53 1-.531 1-.533 1-.535 1-.536 1-.538 1-.54 1-.54 1-.543 1-.544 1-.545 1-.547 1-.55 1-.55 1-.551 1-.554 1-.555 1-.556 1-.558 1-.56 1-.561 1-.563 1-.565 1-.566 1-.567 1-.57 1-.57 1-.572 1-.574 1-.576 1-.576 1-.579 1-.58 1-.582 1-.583 1-.585 1-.586 1-.588 1-.59 1-.59 1-.593 1-.595 1-.595 1-.598 1-.599 1-.6 1-.602 1-.604 1-.605 1-.607 1-.608 1-.61 1-.611 1-.613 1-.615 1-.616 1-.618 1-.619 1-.62 1-.623 1-.624 1-.626 1-.627 1-.629 1-.63 1-.632 1-.633 1-.635 1-.637 1-.638 1-.64 1-.64 1-.644 1-.644 1-.646 1-.647 1-.65 1-.65 1-.652 1-.654 1-.655 1-.657 1-.659 1-.66 1-.662 1-.663 1-.665 1-.666 1-.668 1-.67 1-.67 1-.673 1-.674 1-.676 1-.677 1-.679 1-.68 1-.682 1-.684 1-.685 1-.687 1-.688 1-.69 1-.691 1-.693 1-.695 1-.696 1-.698 1-.699 1-.7 1-.703 1-.704 1-.706 1-.707 1-.708 1-.71 1-.712 1-.714 1-.715 1-.716 1-.718 1-.72 1-.721 1-.723 1-.724 1-.726 1-.728 1-.729 1-.73 1-.732 1-.734 1-.735 1-.737 1-.739 1-.74 1-.741 1-.743 1-.745 1-.746 1-.748 1-.75 1-.75 1-.753 1-.754 1-.756 1-.757 1-.76 1-.76 1-.762 1-.763 1-.765 1-.767 1-.768 1-.77 1-.771 1-.773 1-.775 1-.776 1-.777 1-.78 1-.78 1-.783 1-.784 1-.785 1-.787 1-.789 1-.79 1-.792 1-.793 1-.795 1-.796 1-.799 1-.8 1-.8 1-.803 1-.804 1-.806 1-.808 1-.809 1-.81 1-.812 1-.814 1-.815 1-.817 1-.819 1-.82 1-.821 1-.823 1-.825 1-.826 1-.828 1-.83 1-.83 1-.833 1-.834 1-.835 1-.838 1-.838 1-.84 1-.843 1-.843 1-.845 1-.847 1-.848 1-.85 1-.851 1-.853 1-.855 1-.856 1-.857 1-.86 1-.86 1-.862 1-.864 1-.866 1-.867 1-.868 1-.87 1-.872 1-.874 1-.874 1-.877 1-.878 1-.88 1-.88 1-.883 1-.884 1-.886 1-.888 1-.889 1-.89 1-.892 1-.894 1-.895 1-.897 1-.898 1-.9 1-.902 1-.903 1-.904 1-.907 1-.907 1-.91 1-.91 1-.913 1-.914 1-.916 1-.917 1-.919 1-.92 1-.922 1-.923 1-.925 1-.927 1-.928 1-.93 1-.931 1-.933 1-.934 1-.936 1-.938 1-.94 1-.94 1-.942 1-.944 1-.945 1-.947 1-.949 1-.95 1-.952 1-.953 1-.955 1-.956 1-.958 1-.96 1-.96 1-.963 1-.964 1-.966 1-.968 1-.969 1-.97 1-.972 1-.974 1-.975 1-.977 1-.978 1-.98 1-.981 1-.983 1-.985 1-.986 1-.988 1-.99 1-.99 1-.992 1-.994 1-.996 1-.997 1-.999 1-1 1-1.002 1-1.003 1-1.005 1-1.007 1-1.008 1-1.01 1-1.011 1-1.013 1-1.014 1-1.016 1-1.018 1-1.019 1-1.02 1-1.023 1-1.023 1-1.026 1-1.027 1-1.028 1-1.03 1-1.032 1-1.033 1-1.035 1-1.036 1-1.038 1-1.04 1-1.04 1-1.043 1-1.044 1-1.046 1-1.048 1-1.048 1-1.05 1-1.053 1-1.053 1-1.056 1-1.056 1-1.059 1-1.06 1-1.06 1-1.064 1-1.064 1-1.067 1-1.067 1-1.07 1-1.07 1-1.073 1-1.074 1-1.075 1-1.077 1-1.079 1-1.08 1-1.082 1-1.083 1-1.085 1-1.087 1-1.088 1-1.09 1-1.09 1-1.094 1-1.094 1-1.096 1-1.097 1-1.1 1-1.1 1-1.102 1-1.104 1-1.105 1-1.107 1-1.109 1-1.11 1-1.111 1-1.113 1-1.115 1-1.116 1-1.118 1-1.12 1-1.12 1-1.123 1-1.124 1-1.126 1-1.127 1-1.13 1-1.13 1-1.132 1-1.133 1-1.135 1-1.137 1-1.138 1-1.14 1-1.141 1-1.143 1-1.145 1-1.146 1-1.148 1-1.149 1-1.15 1-1.153 1-1.154 1-1.155 1-1.157 1-1.16 1-1.16 1-1.161 1-1.163 1-1.165 1-1.167 1-1.168 1-1.17 1-1.17 1-1.173 1-1.175 1-1.176 1-1.177 1-1.179 1-1.18 1-1.183 1-1.183 1-1.186 1-1.187 1-1.188 1-1.19 1-1.192 1-1.193 1-1.194 1-1.197 1-1.197 1-1.2 1-1.2 1-1.203 1-1.204 1-1.206 1-1.207 1-1.21 1-1.21 1-1.211 1-1.214 1-1.215 1-1.217 1-1.218 1-1.22 1-1.22 1-1.224 1-1.224 1-1.226 1-1.228 1-1.23 1-1.23 1-1.232 1-1.234 1-1.236 1-1.237 1-1.238 1-1.24 1-1.242 1-1.243 1-1.245 1-1.247 1-1.248 1-1.25 1-1.25 1-1.253 1-1.254 1-1.256 1-1.258 1-1.258 1-1.261 1-1.262 1-1.264 1-1.265 1-1.267 1-1.268 1-1.27 1-1.272 1-1.273 1-1.274 1-1.277 1-1.277 1-1.28 1-1.28 1-1.283 1-1.284 1-1.286 1-1.287 1-1.289 1-1.29 1-1.292 1-1.294 1-1.295 1-1.296 1-1.298 1-1.3 1-1.301 1-1.303 1-1.305 1-1.306 1-1.307 1-1.31 1-1.31 1-1.312 1-1.314 1-1.316 1-1.317 1-1.318 1-1.32 1-1.322 1-1.323 1-1.325 1-1.326 1-1.328 1-1.33 1-1.331 1-1.333 1-1.334 1-1.336 1-1.337 1-1.339 1-1.34 1-1.343 1-1.343 1-1.345 1-1.347 1-1.348 1-1.35 1-1.352 1-1.353 1-1.355 1-1.356 1-1.357 1-1.36 1-1.36 1-1.363 1-1.364 1-1.366 1-1.367 1-1.369 1-1.37 1-1.372 1-1.373 1-1.375 1-1.377 1-1.378 1-1.38 1-1.38 1-1.384 1-1.384 1-1.386 1-1.387 1-1.39 1-1.39 1-1.392 1-1.394 1-1.396 1-1.397 1-1.398 1-1.4 1-1.402 1-1.403 1-1.405 1-1.406 1-1.408 1-1.41 1-1.41 1-1.413 1-1.414 1-1.416 1-1.418 1-1.418 1-1.42 1-1.423 1-1.423 1-1.426 1-1.426 1-1.429 1-1.43 1-1.431 1-1.433 1-1.435 1-1.436 1-1.437 1-1.44 1-1.44 1-1.443 1-1.444 1-1.445 1-1.448 1-1.448 1-1.45 1-1.452 1-1.454 1-1.455 1-1.456 1-1.458 1-1.46 1-1.461 1-1.463 1-1.464 1-1.466 1-1.468 1-1.469 1-1.47 1-1.473 1-1.473 1-1.476 1-1.477 1-1.478 1-1.48 1-1.482 1-1.483 1-1.485 1-1.486 1-1.488 1-1.49 1-1.49 1-1.493 1-1.494 1-1.496 1-1.497 1-1.499 1-1.5 1-1.502 1-1.504 1-1.505 1-1.507 1-1.508 1-1.51 1-1.511 1-1.513 1-1.515 1-1.516 1-1.517 1-1.52 1-1.52 1-1.523 1-1.524 1-1.525 1-1.527 1-1.529 1-1.53 1-1.532 1-1.533 1-1.535 1-1.537 1-1.538 1-1.54 1-1.54 1-1.543 1-1.544 1-1.546 1-1.548 1-1.549 1-1.55 1-1.553 1-1.553 1-1.556 1-1.556 1-1.559 1-1.56 1-1.561 1-1.564 1-1.564 1-1.567 1-1.567 1-1.57 1-1.57 1-1.573 1-1.574 1-1.576 1-1.577 1-1.58 1-1.58 1-1.581 1-1.584 1-1.585 1-1.587 1-1.588 1-1.59 1-1.591 1-1.593 1-1.594 1-1.597 1-1.597 1-1.6 1-1.6 1-1.602 1-1.604 1-1.606 1-1.607 1-1.608 1-1.61 1-1.612 1-1.614 1-1.615 1-1.616 1-1.618 1-1.62 1-1.62 1-1.623 1-1.625 1-1.625 1-1.628 1-1.629 1-1.63 1-1.633 1-1.633 1-1.635 1-1.637 1-1.639 1-1.64 1-1.641 1-1.643 1-1.645 1-1.646 1-1.648 1-1.65 1-1.65 1-1.653 1-1.654 1-1.655 1-1.658 1-1.658 1-1.66 1-1.663 1-1.663 1-1.665 1-1.667 1-1.668 1-1.67 1-1.671 1-1.673 1-1.674 1-1.676 1-1.678 1-1.68 1-1.68 1-1.682 1-1.684 1-1.685 1-1.687 1-1.689 1-1.69 1-1.692 1-1.693 1-1.695 1-1.696 1-1.698 1-1.7 1-1.7 1-1.704 1-1.704 1-1.706 1-1.707 1-1.709 1-1.71 1-1.712 1-1.714 1-1.715 1-1.717 1-1.718 1-1.72 1-1.722 1-1.723 1-1.725 1-1.726 1-1.727 1-1.73 1-1.73 1-1.733 1-1.734 1-1.736 1-1.737 1-1.739 1-1.74 1-1.742 1-1.743 1-1.745 1-1.747 1-1.748 1-1.75 1-1.751 1-1.753 1-1.754 1-1.756 1-1.758 1-1.759 1-1.76 1-1.763 1-1.764 1-1.765 1-1.767 1-1.768 1-1.77 1-1.772 1-1.773 1-1.775 1-1.777 1-1.777 1-1.78 1-1.781 1-1.783 1-1.784 1-1.786 1-1.787 1-1.789 1-1.79 1-1.792 1-1.794 1-1.795 1-1.797 1-1.798 1-1.8 1-1.802 1-1.803 1-1.804 1-1.806 1-1.808 1-1.81 1-1.81 1-1.813 1-1.814 1-1.815 1-1.817 1-1.819 1-1.82 1-1.822 1-1.823 1-1.825 1-1.827 1-1.828 1-1.83 1-1.83 1-1.834 1-1.834 1-1.836 1-1.837 1-1.84 1-1.84 1-1.842 1-1.844 1-1.846 1-1.846 1-1.849 1-1.85 1-1.852 1-1.853 1-1.854 1-1.857 1-1.858 1-1.86 1-1.86 1-1.863 1-1.864 1-1.866 1-1.867 1-1.869 1-1.87 1-1.872 1-1.874 1-1.875 1-1.877 1-1.878 1-1.88 1-1.881 1-1.883 1-1.885 1-1.886 1-1.887 1-1.89 1-1.89 1-1.893 1-1.894 1-1.895 1-1.897 1-1.899 1-1.9 1-1.902 1-1.903 1-1.905 1-1.907 1-1.908 1-1.91 1-1.91 1-1.913 1-1.915 1-1.916 1-1.917 1-1.92 1-1.92 1-1.922 1-1.924 1-1.925 1-1.927 1-1.928 1-1.93 1-1.932 1-1.933 1-1.935 1-1.936 1-1.938 1-1.94 1-1.94 1-1.943 1-1.944 1-1.946 1-1.947 1-1.949 1-1.95 1-1.952 1-1.954 1-1.955 1-1.956 1-1.959 1-1.96 1-1.96 1-1.964 1-1.964 1-1.966 1-1.968 1-1.969 1-1.97 1-1.973 1-1.974 1-1.976 1-1.977 1-1.978 1-1.98 1-1.982 1-1.983 1-1.985 1-1.987 1-1.988 1-1.99 1-1.99 1-1.993 1-1.994 1-1.996 1-1.998 1-1.999 1-2 1-2.002 1-2.004 1-2.005 1-2.007 1-2.009 1-2.01 1-2.011 1-2.013 1-2.015 1-2.016 1-2.018 1-2.02 1-2.02 1-2.023 1-2.024 1-2.026 1-2.027 1-2.029 1-2.03 1-2.032 1-2.033 1-2.035 1-2.037 1-2.038 1-2.04 1-2.041 1-2.043 1-2.045 1-2.046 1-2.047 1-2.05 1-2.05 1-2.052 1-2.054 1-2.056 1-2.057 1-2.058 1-2.06 1-2.062 1-2.063 1-2.065 1-2.067 1-2.068 1-2.07 1-2.07 1-2.073 1-2.074 1-2.076 1-2.077 1-2.08 1-2.08 1-2.082 1-2.084 1-2.085 1-2.087 1-2.088 1-2.09 1-2.091 1-2.093 1-2.095 1-2.096 1-2.098 1-2.1 1-2.1 1-2.103 1-2.104 1-2.105 1-2.108 1-2.108 1-2.11 1-2.112 1-2.114 1-2.115 1-2.117 1-2.118 1-2.12 1-2.12 1-2.124 1-2.124 1-2.126 1-2.127 1-2.13 1-2.13 1-2.133 1-2.133 1-2.136 1-2.137 1-2.138 1-2.14 1-2.142 1-2.143 1-2.145 1-2.146 1-2.148 1-2.15 1-2.15 1-2.154 1-2.154 1-2.156 1-2.157 1-2.159 1-2.16 1-2.162 1-2.164 1-2.165 1-2.167 1-2.168 1-2.17 1-2.172 1-2.173 1-2.174 1-2.176 1-2.178 1-2.18 1-2.18 1-2.183 1-2.184 1-2.185 1-2.187 1-2.189 1-2.19 1-2.192 1-2.194 1-2.195 1-2.196 1-2.198 1-2.2 1-2.201 1-2.203 1-2.204 1-2.206 1-2.208 1-2.209 1-2.21 1-2.213 1-2.213 1-2.216 1-2.217 1-2.218 1-2.22 1-2.222 1-2.223 1-2.225 1-2.226 1-2.228 1-2.23 1-2.23 1-2.233 1-2.234 1-2.236 1-2.237 1-2.24 1-2.24 1-2.242 1-2.243 1-2.245 1-2.247 1-2.248 1-2.25 1-2.252 1-2.253 1-2.254 1-2.256 1-2.258 1-2.26 1-2.26 1-2.262 1-2.264 1-2.266 1-2.267 1-2.269 1-2.27 1-2.272 1-2.273 1-2.275 1-2.277 1-2.278 1-2.28 1-2.28 1-2.283 1-2.285 1-2.285 1-2.288 1-2.289 1-2.29 1-2.293 1-2.294 1-2.295 1-2.297 1-2.298 1-2.3 1-2.302 1-2.303 1-2.305 1-2.306 1-2.308 1-2.31 1-2.31 1-2.313 1-2.314 1-2.316 1-2.317 1-2.319 1-2.32 1-2.322 1-2.324 1-2.325 1-2.326 1-2.329 1-2.33 1-2.33 1-2.334 1-2.334 1-2.336 1-2.338 1-2.34 1-2.34 1-2.342 1-2.344 1-2.346 1-2.347 1-2.348 1-2.35 1-2.352 1-2.354 1-2.355 1-2.356 1-2.358 1-2.36 1-2.36 1-2.364 1-2.364 1-2.366 1-2.367 1-2.37 1-2.37 1-2.372 1-2.374 1-2.375 1-2.377 1-2.378 1-2.38 1-2.382 1-2.383 1-2.384 1-2.387 1-2.387 1-2.39 1-2.39 1-2.393 1-2.394 1-2.396 1-2.397 1-2.4 1-2.4 1-2.401 1-2.404 1-2.405 1-2.407 1-2.408 1-2.41 1-2.41 1-2.414 1-2.414 1-2.416 1-2.418 1-2.419 1-2.42 1-2.423 1-2.424 1-2.425 1-2.427 1-2.429 1-2.43 1-2.432 1-2.433 1-2.435 1-2.436 1-2.438 1-2.44 1-2.441 1-2.443 1-2.444 1-2.446 1-2.447 1-2.45 1-2.45 1-2.452 1-2.453 1-2.456 1-2.457 1-2.458 1-2.46 1-2.461 1-2.463 1-2.465 1-2.466 1-2.468 1-2.47 1-2.47 1-2.473 1-2.474 1-2.475 1-2.478 1-2.478 1-2.48 1-2.483 1-2.483 1-2.485 1-2.487 1-2.488 1-2.49 1-2.49 1-2.494 1-2.494 1-2.496 1-2.498 1-2.499 1-2.5 1-2.503 1-2.504 1-2.505 1-2.507 1-2.509 1-2.51 1-2.511 1-2.514 1-2.514 1-2.517 1-2.518 1-2.52 1-2.52 1-2.523 1-2.524 1-2.526 1-2.527 1-2.53 1-2.53 1-2.532 1-2.533 1-2.536 1-2.536 1-2.539 1-2.54 1-2.541 1-2.543 1-2.545 1-2.546 1-2.548 1-2.549 1-2.55 1-2.553 1-2.554 1-2.556 1-2.557 1-2.559 1-2.56 1-2.562 1-2.563 1-2.565 1-2.567 1-2.568 1-2.57 1-2.57 1-2.574 1-2.574 1-2.576 1-2.577 1-2.58 1-2.58 1-2.582 1-2.584 1-2.586 1-2.587 1-2.588 1-2.59 1-2.592 1-2.593 1-2.595 1-2.596 1-2.598 1-2.6 1-2.6 1-2.603 1-2.604 1-2.606 1-2.607 1-2.61 1-2.61 1-2.612 1-2.613 1-2.615 1-2.617 1-2.618 1-2.62 1-2.622 1-2.623 1-2.624 1-2.626 1-2.628 1-2.63 1-2.63 1-2.633 1-2.634 1-2.635 1-2.637" paint-order="fill stroke markers"/>
        <path fill="none" stroke="#f36" stroke-linecap="round" stroke-linejoin="round" stroke-miterlimit="10" stroke-opacity=".698" stroke-width="2.5" d="m0 757.783 5.984-1.018 5.985-1.065 5.984-1.11 5.985-1.152 5.984-1.194 5.984-1.234 5.985-1.273 5.984-1.31 5.984-1.348 5.985-1.382 5.984-1.417 5.984-1.45 5.985-1.483 5.984-1.514 5.985-1.545 5.984-1.575 5.984-1.605 5.985-1.633 5.984-1.662 5.985-1.688 5.984-1.715 5.984-1.742 5.985-1.767 5.984-1.792 5.984-1.817 5.985-1.84 5.984-1.865 5.984-1.887 5.985-1.91 5.984-1.933 5.985-1.954 5.984-1.976 5.984-1.997 5.985-2.017 5.984-2.039 5.984-2.058 5.985-2.077 5.984-2.098 5.985-2.116 5.984-2.135 5.984-2.153 5.985-2.172 5.984-2.19 5.985-2.207 5.984-2.225 5.984-2.242 5.985-2.26 5.984-2.275 5.984-2.292 5.985-2.309 5.984-2.324 5.985-2.34 5.984-2.356 5.984-2.372 5.985-2.386 5.984-2.402 5.984-2.416 5.985-2.431 5.984-2.446 5.985-2.46 5.984-2.474 5.984-2.488 5.985-2.502 5.984-2.515 5.984-2.53 5.985-2.542 5.984-2.555 5.985-2.569 5.984-2.582 5.984-2.594 5.985-2.607 5.984-2.62 5.984-2.632 5.985-2.644 5.984-2.657 5.985-2.668 5.984-2.68 5.984-2.693 5.985-2.703 5.984-2.716 5.984-2.727 5.985-2.738 5.984-2.75 5.985-2.76 5.984-2.771 5.984-2.783 5.985-2.793 5.984-2.804 5.984-2.815 5.985-2.826 5.984-2.835 5.985-2.846 5.984-2.857 5.984-2.866 5.985-2.877 5.984-2.887 5.984-2.897 5.985-2.906 5.984-2.916 5.985-2.926 5.984-2.936 5.984-2.945 5.985-2.955 5.984-2.964 5.984-2.973 5.985-2.983 5.984-2.992 5.985-3 5.984-3.01 5.984-3.02 5.985-3.027 5.984-3.037 5.984-3.045 5.985-3.054 5.984-3.063 5.985-3.072 5.984-3.08 5.984-3.088 5.985-3.097 5.984-3.105 5.984-3.113 5.985-3.122 5.984-3.13 5.985-3.138 5.984-3.146 5.984-3.154 5.985-3.162L766 451l5.984-3.178 5.985-3.185 5.984-3.194 5.985-3.2 5.984-3.21 5.984-3.216 5.985-3.224 5.984-3.231 5.984-3.24 5.985-3.246 5.984-3.253 5.985-3.261 5.984-3.269 5.984-3.275 5.985-3.283 5.984-3.29 5.984-3.297 5.985-3.304 5.984-3.311 5.985-3.319 5.984-3.325 5.984-3.332 5.985-3.339 5.984-3.345 5.984-3.353 5.985-3.359 5.984-3.366 5.985-3.373 5.984-3.379 5.984-3.386 5.985-3.392 5.984-3.4 5.984-3.405 5.985-3.412 5.984-3.418 5.985-3.425 5.984-3.431 5.984-3.438 5.985-3.444 5.984-3.45 5.984-3.456 5.985-3.463 5.984-3.468 5.985-3.475 5.984-3.48 5.984-3.488 5.985-3.493 5.984-3.499 5.984-3.505 5.985-3.511 5.984-3.517 5.985-3.523 5.984-3.528 5.984-3.535 5.985-3.54 5.984-3.546 5.984-3.552 5.985-3.558 5.984-3.563 5.985-3.569 5.984-3.574 5.984-3.58 5.985-3.586 5.984-3.592 5.984-3.597 5.985-3.602 5.984-3.608 5.985-3.613 5.984-3.62 5.984-3.623 5.985-3.63 5.984-3.635 5.984-3.64 5.985-3.646 5.984-3.65 5.985-3.657 5.984-3.662 5.984-3.666 5.985-3.672 5.984-3.677 5.984-3.683 5.985-3.687 5.984-3.693 5.985-3.697 5.984-3.703 5.984-3.708 5.985-3.712 5.984-3.718 5.984-3.723 5.985-3.728 5.984-3.732 5.984-3.738 5.985-3.742 5.984-3.748 5.985-3.752 5.984-3.757 5.984-3.762 5.985-3.767 5.984-3.772 5.985-3.776 5.984-3.781 5.984-3.786 5.985-3.79 5.984-3.796 5.984-3.8 5.985-3.804 5.984-3.81 5.985-3.813 5.984-3.819 5.984-3.823 5.985-3.827 5.984-3.832 5.984-3.837 5.985-3.841 5.984-3.846 5.985-3.85 5.984-3.855 5.984-3.86 5.985-3.863 5.984-3.868 5.984-3.872 5.985-3.877 5.984-3.881 5.985-3.886 5.984-3.89 5.984-3.894 5.985-3.898L1532-6.757" paint-order="fill stroke markers"/>
        <path fill="none" stroke="#fc8181" stroke-linecap="round" stroke-linejoin="round" stroke-miterlimit="10" stroke-opacity=".698" stroke-width="2.5" d="m0 731.2 5.984-.619 5.985-.666 5.984-.717 5.985-.767 5.984-.822 5.984-.88 5.985-.939 5.984-1.002 5.984-1.07 5.985-1.14 5.984-1.215 5.984-1.295 5.985-1.38 5.984-1.47 5.985-1.565 5.984-1.667 5.984-1.775 5.985-1.89 5.984-2.015 5.985-2.146 5.984-2.286 5.984-2.435 5.985-2.597 5.984-2.767 5.984-2.952 5.985-3.147 5.984-3.357 5.984-3.583 5.985-3.824 5.984-4.082 5.985-4.36 5.984-4.656 5.984-4.976 5.985-5.319 5.984-5.686 5.984-6.081 5.985-6.506 5.984-6.962 5.985-7.452 5.984-7.98 5.984-8.547 5.985-9.158 5.984-9.816 2.992-5.17 2.993-5.353 2.992-5.544 2.992-5.742 2.992-5.947 2.992-6.16 2.992-6.382 2.993-6.611 2.992-6.85 2.992-7.098 2.992-7.354 2.992-7.622 2.993-7.9 2.992-8.187 2.992-8.486 2.992-8.798 2.992-9.12 2.993-9.457 2.992-9.805 1.496-5.038 1.496-5.13 1.496-5.224 1.496-5.32 1.496-5.418 1.496-5.518 1.496-5.619 1.496-5.723 1.497-5.829 1.496-5.936 1.496-6.046 1.496-6.159 1.496-6.272 1.496-6.39 1.496-6.507 1.496-6.628 1.496-6.753 1.496-6.878 1.496-7.006 1.497-7.137 1.496-7.27 1.496-7.408 1.496-7.545 1.496-7.687 1.496-7.832 1.496-7.978 1.496-8.129 1.496-8.282 1.496-8.437 1.497-8.598 1.496-8.759 1.496-8.925 1.496-9.094 1.496-9.266 1.496-9.442 1.496-9.621 1.496-9.804 1.496-9.99.748-5.067.748-5.114.748-5.163.748-5.212.748-5.261.749-5.311.748-5.362.748-5.413.748-5.464.748-5.516.748-5.569.748-5.621.748-5.676.748-5.73.748-5.783.748-5.84.748-5.894.748-5.952.748-6.008.748-6.065.748-6.124.748-6.182.748-6.242.748-6.3.748-6.362.748-6.423.749-6.484.748-6.547.748-6.609.748-6.673.748-6.737" paint-order="fill stroke markers"/>
        <path fill="none" stroke="#68d391" stroke-linecap="round" stroke-linejoin="round" stroke-miterlimit="10" stroke-opacity=".698" stroke-width="2.5" d="M0 727.856zh1533" paint-order="fill stroke markers"/>
        <path fill="#68d391" d="m1199.528 696.97 1.618 1.89q1.619 1.89 1.619 7.315t-3.238 9.135-7.682 3.71q-4.375 0-7.63-3.692t-3.255-9.153q0-5.425 3.22-9.205t7.7-3.78q4.41 0 7.647 3.78m-7.647 19.775q3.15 0 5.46-3.08t2.31-8.015q0-4.55-2.31-7.385t-5.495-2.835q-3.115 0-5.443 2.817t-2.327 7.403q0 4.9 2.293 7.998 2.292 3.097 5.512 3.097M1214.245 692h2.135q-3.08 3.08-4.585 7.315-1.54 4.445-1.54 10.185 0 3.22.507 6.02.508 2.8 1.138 4.533.63 1.732 1.627 3.325.998 1.592 1.54 2.222.543.63 1.313 1.4h-2.135q-6.72-6.16-6.72-17.5 0-5.6 1.645-10.01.56-1.505 1.26-2.783.7-1.277 1.505-2.24.805-.962 1.225-1.4t1.085-1.067M1228.84 694.52v21.7h4.375v2.03H1221.7v-2.03h4.375v-18.2q-1.785.77-4.585.84v-2.03q4.585-.175 6.65-2.31zM1239.97 727h-2.135q3.08-3.08 4.585-7.315 1.54-4.445 1.54-10.185 0-3.22-.507-6.02-.508-2.8-1.138-4.533-.63-1.732-1.628-3.325-.997-1.592-1.54-2.222-.542-.63-1.312-1.4h2.135q6.72 6.16 6.72 17.5 0 5.6-1.645 10.01-.56 1.505-1.26 2.783-.7 1.277-1.505 2.24-.805.962-1.225 1.4T1239.97 727" paint-order="stroke fill markers"/>
        <path fill="#09f" d="M1263.9 634.99q0 5.425-3.85 10.045-3.465 4.2-8.12 5.53-1.645.455-3.255.455-4.375 0-6.895-3.08-2.065-2.52-2.065-6.265 0-5.25 3.745-9.94 3.465-4.235 8.12-5.635 1.715-.525 3.395-.525 4.445 0 6.965 3.22 1.96 2.52 1.96 6.195m-15.015 15.12q3.29 0 6.335-2.94.63-.595 1.155-1.26 3.43-4.27 4.235-10.185.175-1.155.175-2.1 0-4.795-3.22-6.51-.035 0-.07-.035-1.26-.63-2.73-.63-3.29 0-6.37 2.835-1.26 1.12-2.24 2.625-2.66 4.025-3.115 9.625-.07.63-.07 1.12 0 4.48 2.695 6.44 1.4 1.015 3.22 1.015M1277.27 658.65q0 .35-.35.35-.42 0-1.855-1.435-2.17-2.17-3.605-5.145-2.31-4.76-2.31-10.92 0-5.915 2.205-10.675 1.82-3.885 4.62-6.23.735-.595.945-.595.35 0 .35.35 0 .175-.455.595-5.635 5.74-5.635 16.555 0 10.78 5.495 16.38.595.595.595.77M1288.33 626.345l-5.04 20.23q-.21.805-.21 1.68 0 1.61 1.05 1.61 1.365 0 2.275-3.01.175-.525.385-1.33.28-.595.49-.63.42 0 .42.35 0 .525-.63 2.415-.21.595-.42 1.015-.91 1.96-2.625 1.96-1.82 0-2.73-1.47-.455-.77-.455-1.75 0-.56.175-1.19l4.41-17.5.105-.7q0-.385-.49-.49-.42-.105-1.225-.105t-.875-.385q0-.63.665-.735l4.27-.35q.455 0 .455.385M1306.845 640.695q0 3.71-2.835 6.755-2.695 2.94-6.055 3.15-.245.035-.49.035-3.045 0-4.62-2.415-.98-1.505-.98-3.5 0-3.605 2.8-6.685 2.66-2.94 6.02-3.22.28-.035.56-.035 3.01 0 4.585 2.345 1.015 1.505 1.015 3.57m-9.345 9.17q2.065 0 3.885-2.03.49-.56.875-1.19 1.47-2.52 1.96-6.265.035-.28.035-.56v-.035l.035-.035v-.42q0-2.59-1.715-3.465-.595-.315-1.365-.315-2.135 0-4.025 2.24-.245.315-.455.63-.14.175-.245.35-1.26 2.03-1.855 5.67-.175.98-.175 1.61 0 2.905 2.03 3.64.49.175 1.015.175M1323.89 637.055l-3.885 15.54q-.525 2.1-2.73 3.535-2.03 1.295-4.69 1.295-4.305 0-4.62-1.75-.035-.175-.035-.385 0-1.435 1.295-1.925.315-.105.595-.105 1.085 0 1.295.945.035.14.035.28 0 1.12-1.05 1.68-.175.07-.385.14 1.085.35 2.8.35 3.43 0 5.04-3.78l1.155-4.62-.035-.035q-1.575 1.75-3.535 1.995-.28.035-.525.035-2.45 0-3.78-2.135-.875-1.435-.875-3.395 0-3.745 2.66-6.86 2.45-2.87 5.285-3.08h.385q1.89 0 3.045 1.785l.21.42q.315-1.33 1.435-1.505.91 0 1.015.945zm-4.55 8.715 1.68-6.685q.105-.42.105-.525 0-.7-.595-1.68-.42-.7-1.05-1.05-.525-.28-1.155-.28-1.82 0-3.465 2.345-.245.385-.455.77-1.12 2.1-1.785 5.845-.175 1.085-.175 1.75 0 2.31 1.33 3.01.385.21.945.21 1.365 0 2.835-1.26 1.54-1.33 1.785-2.45M1335.1 651.237l-.686 4.263h-9.089q0-.612.147-.784l.122-.123 4.704-5.242q2.573-2.891 2.573-5.415 0-2.18-1.323-3.308l-.024-.024h-.025q-.784-.662-1.911-.662-1.764 0-2.818 1.52-.293.44-.49.98.074-.025.319-.025.98 0 1.25.882v.024q.048.172.048.368 0 .98-.93 1.25-.197.048-.344.048-.906 0-1.2-.759-.098-.27-.098-.613 0-1.886 1.445-3.233 1.299-1.201 3.136-1.201 2.696 0 4.19 1.813.857 1.053.98 2.499.024.22.024.441 0 1.788-1.347 3.405-.71.833-2.205 2.206l-1.495 1.322-.245.221-2.597 2.524h4.41q2.156 0 2.328-.197.245-.343.539-2.18zM1347.935 658.65q0 .35-.35.35-.42 0-1.855-1.435-2.17-2.17-3.605-5.145-2.31-4.76-2.31-10.92 0-5.915 2.205-10.675 1.82-3.885 4.62-6.23.735-.595.945-.595.35 0 .35.35 0 .175-.455.595-5.635 5.74-5.635 16.555 0 10.78 5.495 16.38.595.595.595.77M1353.045 648.185l2.03-8.085q.56-2.24.56-2.94 0-1.61-1.085-1.61-1.435 0-2.345 3.325-.105.385-.21.84-.385.77-.595.805-.42 0-.42-.35 0-.56.7-2.52v-.035q0-.035.035-.035v-.07l.315-.735q.77-1.4 1.575-1.75.49-.245 1.05-.245 1.96 0 2.835 1.645.315.63.385 1.4 2.24-3.045 5.46-3.045 3.01 0 3.815 2.31.21.63.21 1.435 0 1.785-2.135 7.7-.63 1.54-.63 2.485 0 1.155.84 1.155 2.31 0 3.57-4.34.175-.56.35-.595v-.035h.175q.42 0 .42.35 0 .595-.735 2.205-1.505 3.185-3.85 3.185-1.785 0-2.555-1.505-.315-.63-.315-1.365 0-.7.35-1.61 2.275-6.125 2.275-8.155 0-2.45-1.89-2.45-3.15 0-5.285 3.5-.245.385-.42.77l-.455 1.75q-.175.805-.595 2.345l-.77 3.15q-.595 2.415-.665 2.59-.315.91-1.295.98-.875-.175-1.015-.945 0 .07.315-1.505M1381.08 641.5q0 5.915-2.205 10.675-1.82 3.885-4.62 6.23-.735.595-.945.595-.35 0-.35-.35 0-.175.455-.595 5.635-5.74 5.635-16.555 0-10.675-5.25-16.17l-.175-.175q-.665-.63-.665-.805 0-.35.35-.35.42 0 1.855 1.435 2.17 2.17 3.605 5.145 2.31 4.76 2.31 10.92M1394.695 641.5q0 5.915-2.205 10.675-1.82 3.885-4.62 6.23-.735.595-.945.595-.35 0-.35-.35 0-.175.455-.595 5.635-5.74 5.635-16.555 0-10.675-5.25-16.17l-.175-.175q-.665-.63-.665-.805 0-.35.35-.35.42 0 1.855 1.435 2.17 2.17 3.605 5.145 2.31 4.76 2.31 10.92" paint-order="stroke fill markers"/>
        <path fill="#63b3ed" d="m1212.528 493.97 1.618 1.89q1.619 1.89 1.619 7.315t-3.238 9.135-7.682 3.71q-4.375 0-7.63-3.692t-3.255-9.153q0-5.425 3.22-9.205t7.7-3.78q4.41 0 7.647 3.78m-7.647 19.775q3.15 0 5.46-3.08t2.31-8.015q0-4.55-2.31-7.385t-5.495-2.835q-3.115 0-5.443 2.817t-2.327 7.403q0 4.9 2.293 7.998 2.292 3.097 5.512 3.097M1227.245 489h2.135q-3.08 3.08-4.585 7.315-1.54 4.445-1.54 10.185 0 3.22.507 6.02.508 2.8 1.138 4.533.63 1.732 1.627 3.325.998 1.592 1.54 2.222.543.63 1.313 1.4h-2.135q-6.72-6.16-6.72-17.5 0-5.6 1.645-10.01.56-1.505 1.26-2.783.7-1.277 1.505-2.24.805-.962 1.225-1.4t1.085-1.067M1246.6 504.82v10.43h-2.73v-10.185q0-.49-.017-.822-.018-.333-.21-.91-.193-.578-.525-.946-.333-.367-1.015-.647-.683-.28-1.628-.28-1.82 0-2.678 1.575t-.857 3.64v8.575h-2.73V499.5h2.52v2.485q1.995-2.66 5.075-2.66 4.795 0 4.795 5.495M1253.565 524h-2.135q3.08-3.08 4.585-7.315 1.54-4.445 1.54-10.185 0-3.22-.507-6.02-.508-2.8-1.138-4.533-.63-1.732-1.628-3.325-.997-1.592-1.54-2.222-.542-.63-1.312-1.4h2.135q6.72 6.16 6.72 17.5 0 5.6-1.645 10.01-.56 1.505-1.26 2.783-.7 1.277-1.505 2.24-.805.962-1.225 1.4t-1.085 1.067" paint-order="stroke fill markers"/>
        <path fill="#ff7f00" d="M786.9 135.97q0 5.424-3.85 10.044-3.465 4.2-8.12 5.53-1.645.455-3.255.455-4.375 0-6.895-3.08-2.065-2.52-2.065-6.265 0-5.25 3.745-9.94 3.465-4.235 8.12-5.635 1.715-.525 3.395-.525 4.445 0 6.965 3.22 1.96 2.52 1.96 6.195m-15.015 15.12q3.29 0 6.335-2.94.63-.595 1.155-1.26 3.43-4.27 4.235-10.185.175-1.155.175-2.1 0-4.795-3.22-6.51-.035 0-.07-.035-1.26-.63-2.73-.63-3.29 0-6.37 2.835-1.26 1.12-2.24 2.625-2.66 4.025-3.115 9.625-.07.63-.07 1.12 0 4.48 2.695 6.44 1.4 1.015 3.22 1.015M800.27 159.63q0 .35-.35.35-.42 0-1.855-1.436-2.17-2.17-3.605-5.145-2.31-4.76-2.31-10.92 0-5.915 2.205-10.675 1.82-3.885 4.62-6.23.735-.595.945-.595.35 0 .35.35 0 .175-.455.595-5.635 5.74-5.635 16.555 0 10.78 5.495 16.38.595.595.595.77M805.38 149.164l2.03-8.085q.56-2.24.56-2.94 0-1.61-1.085-1.61-1.435 0-2.345 3.325-.105.385-.21.84-.385.77-.595.805-.42 0-.42-.35 0-.56.7-2.52v-.035q0-.035.035-.035v-.07l.315-.735q.77-1.4 1.575-1.75.49-.245 1.05-.245 1.96 0 2.835 1.645.315.63.385 1.4 2.24-3.045 5.46-3.045 3.01 0 3.815 2.31.21.63.21 1.435 0 1.785-2.135 7.7-.63 1.54-.63 2.485 0 1.155.84 1.155 2.31 0 3.57-4.34.175-.56.35-.595v-.035h.175q.42 0 .42.35 0 .595-.735 2.205-1.505 3.185-3.85 3.185-1.785 0-2.555-1.505-.315-.63-.315-1.365 0-.7.35-1.61 2.275-6.125 2.275-8.155 0-2.45-1.89-2.45-3.15 0-5.285 3.5-.245.385-.42.77l-.455 1.75q-.175.805-.595 2.345l-.77 3.15q-.595 2.415-.665 2.59-.315.91-1.295.98-.875-.175-1.015-.945 0 .07.315-1.505M834.3 132.515l-.685 4.263h-9.09q0-.612.147-.784l.123-.122 4.704-5.243q2.572-2.891 2.572-5.415 0-2.18-1.323-3.307l-.024-.025h-.025q-.784-.661-1.911-.661-1.764 0-2.817 1.519-.294.44-.49.98.073-.025.318-.025.98 0 1.25.882v.025q.049.171.049.367 0 .98-.931 1.25-.197.049-.343.049-.907 0-1.201-.76-.098-.27-.098-.612 0-1.887 1.446-3.234 1.298-1.201 3.136-1.201 2.695 0 4.189 1.813.858 1.054.98 2.499.025.22.025.441 0 1.789-1.348 3.406-.71.833-2.205 2.205l-1.495 1.323-.245.22-2.596 2.524h4.41q2.156 0 2.327-.196.245-.343.539-2.181zM846.163 142.48q0 5.914-2.205 10.674-1.82 3.885-4.62 6.23-.735.595-.945.595-.35 0-.35-.35 0-.175.455-.595 5.635-5.74 5.635-16.555 0-10.675-5.25-16.17l-.175-.175q-.665-.63-.665-.805 0-.35.35-.35.42 0 1.855 1.435 2.17 2.17 3.605 5.145 2.31 4.76 2.31 10.92" paint-order="stroke fill markers"/>
        <path fill="#f36" d="M910.9 241.99q0 5.425-3.85 10.045-3.465 4.2-8.12 5.53-1.645.455-3.255.455-4.375 0-6.895-3.08-2.065-2.52-2.065-6.265 0-5.25 3.745-9.94 3.465-4.235 8.12-5.635 1.715-.525 3.395-.525 4.445 0 6.965 3.22 1.96 2.52 1.96 6.195m-15.015 15.12q3.29 0 6.335-2.94.63-.595 1.155-1.26 3.43-4.27 4.235-10.185.175-1.155.175-2.1 0-4.795-3.22-6.51-.035 0-.07-.035-1.26-.63-2.73-.63-3.29 0-6.37 2.835-1.26 1.12-2.24 2.625-2.66 4.025-3.115 9.625-.07.63-.07 1.12 0 4.48 2.695 6.44 1.4 1.015 3.22 1.015M924.27 265.65q0 .35-.35.35-.42 0-1.855-1.435-2.17-2.17-3.605-5.145-2.31-4.76-2.31-10.92 0-5.915 2.205-10.675 1.82-3.885 4.62-6.23.735-.595.945-.595.35 0 .35.35 0 .175-.455.595-5.635 5.74-5.635 16.555 0 10.78 5.495 16.38.595.595.595.77M929.38 255.185l2.03-8.085q.56-2.24.56-2.94 0-1.61-1.085-1.61-1.435 0-2.345 3.325-.105.385-.21.84-.385.77-.595.805-.42 0-.42-.35 0-.56.7-2.52v-.035q0-.035.035-.035v-.07l.315-.735q.77-1.4 1.575-1.75.49-.245 1.05-.245 1.96 0 2.835 1.645.315.63.385 1.4 2.24-3.045 5.46-3.045 3.01 0 3.815 2.31.21.63.21 1.435 0 1.785-2.135 7.7-.63 1.54-.63 2.485 0 1.155.84 1.155 2.31 0 3.57-4.34.175-.56.35-.595v-.035h.175q.42 0 .42.35 0 .595-.735 2.205-1.505 3.185-3.85 3.185-1.785 0-2.555-1.505-.315-.63-.315-1.365 0-.7.35-1.61 2.275-6.125 2.275-8.155 0-2.45-1.89-2.45-3.15 0-5.285 3.5-.245.385-.42.77l-.455 1.75q-.175.805-.595 2.345l-.77 3.15q-.595 2.415-.665 2.59-.315.91-1.295.98-.875-.175-1.015-.945 0 .07.315-1.505M953.6 254.345v2.905h-2.905v-2.905zM966.06 233.345l-5.04 20.23q-.21.805-.21 1.68 0 1.61 1.05 1.61 1.365 0 2.275-3.01.175-.525.385-1.33.28-.595.49-.63.42 0 .42.35 0 .525-.63 2.415-.21.595-.42 1.015-.91 1.96-2.625 1.96-1.82 0-2.73-1.47-.455-.77-.455-1.75 0-.56.175-1.19l4.41-17.5.105-.7q0-.385-.49-.49-.42-.105-1.225-.105t-.875-.385q0-.63.665-.735l4.27-.35q.455 0 .455.385M984.575 247.695q0 3.71-2.835 6.755-2.695 2.94-6.055 3.15-.245.035-.49.035-3.045 0-4.62-2.415-.98-1.505-.98-3.5 0-3.605 2.8-6.685 2.66-2.94 6.02-3.22.28-.035.56-.035 3.01 0 4.585 2.345 1.015 1.505 1.015 3.57m-9.345 9.17q2.065 0 3.885-2.03.49-.56.875-1.19 1.47-2.52 1.96-6.265.035-.28.035-.56v-.035l.035-.035v-.42q0-2.59-1.715-3.465-.595-.315-1.365-.315-2.135 0-4.025 2.24-.245.315-.455.63-.14.175-.245.35-1.26 2.03-1.855 5.67-.175.98-.175 1.61 0 2.905 2.03 3.64.49.175 1.015.175M1001.62 244.055l-3.885 15.54q-.525 2.1-2.73 3.535-2.03 1.295-4.69 1.295-4.305 0-4.62-1.75-.035-.175-.035-.385 0-1.435 1.295-1.925.315-.105.595-.105 1.085 0 1.295.945.035.14.035.28 0 1.12-1.05 1.68-.175.07-.385.14 1.085.35 2.8.35 3.43 0 5.04-3.78l1.155-4.62-.035-.035q-1.575 1.75-3.535 1.995-.28.035-.525.035-2.45 0-3.78-2.135-.875-1.435-.875-3.395 0-3.745 2.66-6.86 2.45-2.87 5.285-3.08h.385q1.89 0 3.045 1.785l.21.42q.315-1.33 1.435-1.505.91 0 1.015.945zm-4.55 8.715 1.68-6.685q.105-.42.105-.525 0-.7-.595-1.68-.42-.7-1.05-1.05-.525-.28-1.155-.28-1.82 0-3.465 2.345-.245.385-.455.77-1.12 2.1-1.785 5.845-.175 1.085-.175 1.75 0 2.31 1.33 3.01.385.21.945.21 1.365 0 2.835-1.26 1.54-1.33 1.785-2.45M1012.83 258.237l-.686 4.263h-9.089q0-.613.147-.784l.123-.123 4.703-5.243q2.573-2.89 2.573-5.414 0-2.18-1.323-3.308l-.024-.024h-.025q-.784-.662-1.911-.662-1.764 0-2.817 1.52-.294.44-.49.98.073-.025.318-.025.98 0 1.25.882v.024q.049.172.049.368 0 .98-.932 1.25-.196.048-.342.048-.907 0-1.201-.759-.098-.27-.098-.612 0-1.887 1.446-3.234 1.298-1.201 3.136-1.201 2.695 0 4.189 1.813.858 1.053.98 2.499.024.22.024.441 0 1.788-1.347 3.405-.71.833-2.205 2.205l-1.495 1.324-.245.22-2.596 2.524h4.41q2.156 0 2.327-.196.245-.344.539-2.181zM1025.665 265.65q0 .35-.35.35-.42 0-1.855-1.435-2.17-2.17-3.605-5.145-2.31-4.76-2.31-10.92 0-5.915 2.205-10.675 1.82-3.885 4.62-6.23.735-.595.945-.595.35 0 .35.35 0 .175-.455.595-5.635 5.74-5.635 16.555 0 10.78 5.495 16.38.595.595.595.77M1030.775 255.185l2.03-8.085q.56-2.24.56-2.94 0-1.61-1.085-1.61-1.435 0-2.345 3.325-.105.385-.21.84-.385.77-.595.805-.42 0-.42-.35 0-.56.7-2.52v-.035q0-.035.035-.035v-.07l.315-.735q.77-1.4 1.575-1.75.49-.245 1.05-.245 1.96 0 2.835 1.645.315.63.385 1.4 2.24-3.045 5.46-3.045 3.01 0 3.815 2.31.21.63.21 1.435 0 1.785-2.135 7.7-.63 1.54-.63 2.485 0 1.155.84 1.155 2.31 0 3.57-4.34.175-.56.35-.595v-.035h.175q.42 0 .42.35 0 .595-.735 2.205-1.505 3.185-3.85 3.185-1.785 0-2.555-1.505-.315-.63-.315-1.365 0-.7.35-1.61 2.275-6.125 2.275-8.155 0-2.45-1.89-2.45-3.15 0-5.285 3.5-.245.385-.42.77l-.455 1.75q-.175.805-.595 2.345l-.77 3.15q-.595 2.415-.665 2.59-.315.91-1.295.98-.875-.175-1.015-.945 0 .07.315-1.505M1058.81 248.5q0 5.915-2.205 10.675-1.82 3.885-4.62 6.23-.735.595-.945.595-.35 0-.35-.35 0-.175.455-.595 5.635-5.74 5.635-16.555 0-10.675-5.25-16.17l-.175-.175q-.665-.63-.665-.805 0-.35.35-.35.42 0 1.855 1.435 2.17 2.17 3.605 5.145 2.31 4.76 2.31 10.92M1072.425 248.5q0 5.915-2.205 10.675-1.82 3.885-4.62 6.23-.735.595-.945.595-.35 0-.35-.35 0-.175.455-.595 5.635-5.74 5.635-16.555 0-10.675-5.25-16.17l-.175-.175q-.665-.63-.665-.805 0-.35.35-.35.42 0 1.855 1.435 2.17 2.17 3.605 5.145 2.31 4.76 2.31 10.92" paint-order="stroke fill markers"/>
        <path fill="#fc8181" d="m421.528 45.97 1.618 1.89q1.619 1.89 1.619 7.315t-3.238 9.135-7.682 3.71q-4.375 0-7.63-3.692t-3.255-9.153q0-5.425 3.22-9.205t7.7-3.78q4.41 0 7.647 3.78m-7.647 19.775q3.15 0 5.46-3.08t2.31-8.015q0-4.55-2.31-7.385t-5.495-2.835q-3.115 0-5.443 2.818t-2.327 7.402q0 4.9 2.293 7.998 2.292 3.097 5.512 3.097M436.245 41h2.135q-3.08 3.08-4.585 7.315-1.54 4.445-1.54 10.185 0 3.22.508 6.02.507 2.8 1.137 4.532t1.628 3.325 1.54 2.223q.542.63 1.312 1.4h-2.135q-6.72-6.16-6.72-17.5 0-5.6 1.645-10.01.56-1.505 1.26-2.783.7-1.277 1.505-2.24.805-.962 1.225-1.4T436.245 41M455.6 56.82v10.43h-2.73V57.065q0-.49-.017-.822-.018-.333-.21-.91-.193-.578-.525-.945-.333-.368-1.015-.648-.683-.28-1.628-.28-1.82 0-2.678 1.575t-.857 3.64v8.575h-2.73V51.5h2.52v2.485q1.995-2.66 5.075-2.66 4.795 0 4.795 5.495M469.128 45.498v7.3h-1.911V45.67q0-.343-.013-.575-.012-.233-.147-.637-.135-.405-.367-.662-.233-.257-.71-.453-.479-.196-1.14-.196-1.274 0-1.874 1.102t-.6 2.548V52.8h-1.911V41.774h1.763v1.74q1.397-1.863 3.553-1.863 3.356 0 3.356 3.847M475.73 76h-2.135q3.08-3.08 4.585-7.315 1.54-4.445 1.54-10.185 0-3.22-.508-6.02-.507-2.8-1.137-4.532t-1.628-3.325-1.54-2.223q-.542-.63-1.312-1.4h2.135q6.72 6.16 6.72 17.5 0 5.6-1.645 10.01-.56 1.505-1.26 2.782t-1.505 2.24-1.225 1.4T475.73 76" paint-order="stroke fill markers"/>
    </g>
</svg>
